<svg width="348" height="270" viewBox="0 0 348 270" fill="none" xmlns="http://www.w3.org/2000/svg">
<mask id="mask0_717_54543" style="mask-type:alpha" maskUnits="userSpaceOnUse" x="0" y="0" width="348" height="270">
<rect width="348" height="270" fill="#D9D9D9"/>
</mask>
<g mask="url(#mask0_717_54543)">
<path d="M98.9322 6.31357V14.3736H105.963V24.3078H98.9322V32.12H105.963V58.7597H123.931C131.275 58.7597 136.613 57.2494 139.946 54.2286C143.332 51.2079 145.024 46.9893 145.024 41.5728C145.024 36.2084 143.332 31.9898 139.946 28.917C136.561 25.8442 131.223 24.3078 123.931 24.3078H115.338V14.3736H146.326V6.31357H98.9322ZM115.338 50.4788V32.12H123.931C127.837 32.12 130.676 32.9533 132.447 34.6199C134.27 36.2865 135.181 38.526 135.181 41.3384C135.181 44.1509 134.27 46.3643 132.447 47.9789C130.676 49.6455 127.837 50.4788 123.931 50.4788H115.338Z" stroke="#FF2F35"/>
<path d="M174 32.5C174 60.9427 150.943 84 122.5 84C94.0573 84 71 60.9427 71 32.5C71 4.05733 94.0573 -19 122.5 -19C150.943 -19 174 4.05733 174 32.5Z" stroke="#FF2F35"/>
<path d="M169.636 32.5C169.636 58.5323 148.532 79.6356 122.5 79.6356C96.4677 79.6356 75.3644 58.5323 75.3644 32.5C75.3644 6.46773 96.4677 -14.6356 122.5 -14.6356C148.532 -14.6356 169.636 6.46773 169.636 32.5Z" stroke="#FF2F35"/>
<path d="M221.271 71.2458V80.5578H229.394V92.0352H221.271V101.061H229.394V131.839H250.154C258.638 131.839 264.806 130.094 268.657 126.604C272.568 123.114 274.523 118.24 274.523 111.982C274.523 105.784 272.568 100.911 268.657 97.3604C264.745 93.8103 258.578 92.0352 250.154 92.0352H240.225V80.5578H276.028V71.2458H221.271ZM240.225 122.272V101.061H250.154C254.667 101.061 257.946 102.024 259.992 103.949C262.098 105.875 263.151 108.462 263.151 111.711C263.151 114.961 262.098 117.518 259.992 119.383C257.946 121.309 254.667 122.272 250.154 122.272H240.225Z" stroke="#FF2F35"/>
<path d="M308 101.5C308 134.361 281.361 161 248.5 161C215.639 161 189 134.361 189 101.5C189 68.6391 215.639 42 248.5 42C281.361 42 308 68.6391 308 101.5Z" stroke="#FF2F35"/>
<path d="M302.958 101.5C302.958 131.576 278.576 155.958 248.5 155.958C218.424 155.958 194.042 131.576 194.042 101.5C194.042 71.4239 218.424 47.0424 248.5 47.0424C278.576 47.0424 302.958 71.4239 302.958 101.5Z" stroke="#FF2F35"/>
<path d="M108.695 172.161V183.038H118.183V196.444H108.695V206.987H118.183V242.938H142.432C152.342 242.938 159.546 240.9 164.044 236.823C168.613 232.747 170.897 227.054 170.897 219.744C170.897 212.505 168.613 206.811 164.044 202.665C159.476 198.518 152.272 196.444 142.432 196.444H130.835V183.038H172.654V172.161H108.695ZM130.835 231.763V206.987H142.432C147.703 206.987 151.534 208.112 153.923 210.361C156.383 212.61 157.613 215.632 157.613 219.428C157.613 223.223 156.383 226.21 153.923 228.389C151.534 230.638 147.703 231.763 142.432 231.763H130.835Z" stroke="#FF2F35"/>
<path d="M210 207.5C210 245.884 178.884 277 140.5 277C102.116 277 71 245.884 71 207.5C71 169.116 102.116 138 140.5 138C178.884 138 210 169.116 210 207.5Z" stroke="#FF2F35"/>
<path d="M204.11 207.5C204.11 242.631 175.631 271.11 140.5 271.11C105.369 271.11 76.8898 242.631 76.8898 207.5C76.8898 172.369 105.369 143.89 140.5 143.89C175.631 143.89 204.11 172.369 204.11 207.5Z" stroke="#FF2F35"/>
</g>
</svg>
