<svg width="49" height="53" viewBox="0 0 49 53" fill="none" xmlns="http://www.w3.org/2000/svg">
<path d="M14.5748 48.8406L9.35629 49.5197C9.35629 46.8739 7.66824 40.7595 6.82422 38.0331C7.5859 37.6098 9.67743 36.598 11.9501 35.9365C13.3335 38.913 14.2763 45.7794 14.5748 48.8406Z" fill="white"/>
<path d="M36.962 35.9365C35.628 38.5114 34.677 45.6121 34.3682 48.8406C35.3975 48.9784 37.8575 49.3662 39.4632 49.815C39.7102 46.0353 41.2542 40.3855 41.9952 38.0331C41.3777 37.6295 39.5064 36.6452 36.962 35.9365Z" fill="white"/>
<path d="M19.1133 38.0925L20.3484 35.0215H28.4696L29.7665 37.62L28.9328 38.9488C28.0476 39.3622 25.9066 40.189 24.4244 40.189C22.9423 40.189 21.0895 39.5591 20.3484 39.2441L19.1133 38.0925Z" fill="#FFDF93"/>
<path d="M14.6679 18.6918C14.4456 18.9044 13.5666 18.7804 13.1548 18.6918C11.0242 19.9908 12.0741 21.3789 13.1548 23.5345C14.0194 25.2589 14.9355 25.8672 15.2855 25.9558C15.4913 28.2295 17.5582 32.7769 24.1786 32.7769C30.799 32.7769 32.9688 28.2295 33.2261 25.9558C33.6172 25.8672 34.523 25.6605 35.0171 25.5424C35.6346 25.3948 36.9933 22.9439 36.9316 20.6997C36.8822 18.9044 35.2229 18.613 34.3995 18.6918C34.3995 18.8886 34.1648 18.7745 33.2261 16.7429C32.0527 14.2034 26.8959 14.3806 24.1786 14.3806C21.4612 14.3806 18.0028 14.7054 16.7368 15.5027C15.4707 16.3 14.9458 18.426 14.6679 18.6918Z" fill="#FFDF93"/>
<path d="M24.3636 28.0522C22.2391 28.0522 21.111 26.9104 20.8125 26.3395L24.3636 25.6309L28.069 26.3395C27.7191 26.9104 26.488 28.0522 24.3636 28.0522Z" fill="white"/>
<path d="M16.5507 15.4944L14.4201 18.6539H14.2965C14.0495 18.4571 13.4381 17.8094 12.9688 16.7936C14.3274 15.5416 15.9228 15.4058 16.5507 15.4944Z" fill="white"/>
<path d="M34.584 18.6539C34.2628 18.0397 33.0297 16.2916 32.4533 15.4944C34.3307 15.6125 35.5206 16.3113 35.8809 16.646L35.0181 18.5613C35.0904 18.5467 35.0614 18.5546 35.0163 18.5654L35.0181 18.5613C34.9584 18.5733 34.8297 18.6005 34.584 18.6539Z" fill="white"/>
<path d="M24.3944 40.1291C22.764 40.1291 20.9977 39.6172 20.3184 39.3613C21.5844 41.0149 24.3944 47.2455 24.3944 47.0978C24.3944 46.9797 27.1735 41.891 28.563 39.3613C27.8528 39.6172 26.0248 40.1291 24.3944 40.1291Z" fill="#FDB813"/>
<path d="M9.13956 51.9704C3.8531 48.8049 1.46101 43.2102 0.925781 40.8085V39.9227C2.32562 39.3912 5.32293 38.3281 6.11343 38.3281C7.10155 38.3281 6.73101 38.4462 7.41034 39.9227C8.83077 45.4741 9.5101 51.7341 9.13956 51.9704Z" fill="#FF2F35"/>
<path d="M39.7101 51.9704C44.9965 48.8049 47.3886 43.2102 47.9238 40.8085V39.9227C46.524 39.3912 43.5267 38.3281 42.7362 38.3281C41.7481 38.3281 42.1186 38.4462 41.4393 39.9227C40.0188 45.4741 39.3395 51.7341 39.7101 51.9704Z" fill="#FF2F35"/>
<path d="M18.59 37.3244L20.134 35.2574V34.7849C18.9606 33.8597 16.4409 32.021 15.7492 32.0683C14.8846 32.1273 12.229 35.2574 12.1055 36.1432C13.8964 39.8048 14.6993 46.5964 14.5758 51.321C17.886 51.0375 22.5014 50.9273 24.3953 50.9076V48.5453V47.0098L20.134 39.037L18.59 37.3244Z" fill="#FF2F35"/>
<path d="M30.3221 37.3244L28.7781 35.2574V34.7849C29.9515 33.8597 32.4712 32.021 33.1629 32.0683C34.0275 32.1273 36.6831 35.2574 36.8066 36.1432C35.0157 39.8048 34.2128 46.5964 34.3363 51.321C31.0261 51.0375 26.4108 50.9273 24.5169 50.9076V48.5453V47.0098L28.7781 39.037L30.3221 37.3244Z" fill="#FF2F35"/>
<path d="M24.3325 14.4103C17.218 14.4103 13.2984 16.182 12.228 17.0678C11.8574 16.3592 11.7339 14.115 12.5985 13.4063C12.4132 7.32339 15.6246 4.90201 18.0332 3.1303C17.9714 2.53975 20.3182 1.4767 20.6888 1.4767C21.0593 1.4767 22.1709 1.4767 22.4797 0.945177C22.7885 0.413656 25.3823 0.472718 26.1852 0.945177C26.988 1.41764 27.2968 1.83104 28.0379 1.4767C28.779 1.12235 29.2113 1.65387 30.817 3.1303C36.0047 6.10679 36.6017 11.2212 36.2517 13.4063L36.931 14.115V16.7726C35.6959 15.9851 31.447 14.4103 24.3325 14.4103Z" fill="#FDB813"/>
<path d="M40.3544 52.0485C44.4051 49.1661 45.6097 48.0077 47.7739 43.0339C47.0842 47.6899 45.3771 50.2609 40.3544 52.0485Z" fill="#222222"/>
<path d="M8.3459 52.0485C4.29512 49.1661 3.0906 48.0077 0.926361 43.0339C1.61602 47.6899 3.32316 50.2609 8.3459 52.0485Z" fill="#222222"/>
<path fill-rule="evenodd" clip-rule="evenodd" d="M48.6029 41.222C48.0162 41.8569 46.8737 43.7615 46.8737 43.7615C46.9663 43.3186 48.0082 41.3247 47.7383 40.6905C47.4684 40.0564 46.6267 40.5133 46.6267 40.5133C46.6267 40.5133 44.241 39.3463 43.7234 39.0369C43.2059 38.7276 42.0794 38.7557 41.6854 39.9818C40.4892 44.0721 39.6474 52.0295 39.6474 52.0295L38.7828 51.9114L39.0298 49.9625L34.7681 49.431L34.6446 51.498C34.6446 51.498 34.4824 51.4827 33.8418 51.439C33.726 46.6411 35.131 39.9664 36.4356 35.9659C34.0655 38.7866 31.6181 39.5684 31.6181 39.5684C31.6181 39.5684 30.6839 37.2497 29.4566 38.9779C28.2293 40.706 24.8243 47.3049 24.8243 47.3049L24.4538 51.2027L24.0832 47.3049C24.0832 47.3049 20.6788 40.706 19.4514 38.9779C18.224 37.2497 17.2899 39.5684 17.2899 39.5684C17.2899 39.5684 14.8427 38.7866 12.4728 35.9659C13.7775 39.9664 15.1823 46.6411 15.0666 51.439C14.4259 51.4827 14.2638 51.498 14.2638 51.498L14.1402 49.431L9.87896 49.9625L10.126 51.9114L9.26138 52.0295C9.26138 52.0295 8.41987 44.0721 7.22338 39.9818C6.82973 38.7557 5.70253 38.7276 5.18537 39.0369C4.66821 39.3463 2.28276 40.5133 2.28276 40.5133C2.28276 40.5133 1.44125 40.0564 1.17112 40.6905C0.90099 41.3247 1.94309 43.3186 2.03573 43.7615C2.03573 43.7615 0.893209 41.8569 0.30651 41.222C-0.280188 40.5872 -0.0949148 39.7604 1.47991 39.3322C3.05473 38.904 12.164 35.021 12.164 35.021L15.3136 31.4185C15.4895 31.3576 15.6791 31.3418 15.8633 31.3729C16.0476 31.404 16.2201 31.4808 16.3635 31.5957C15.221 29.8683 14.9431 26.2215 14.9431 26.2215C14.9431 26.2215 13.8623 26.3543 13.1521 24.9222C12.4419 23.4901 11.2067 21.7183 11.2994 20.7291C11.392 19.7399 11.7317 19.0017 12.4728 18.544C10.9597 18.1158 10.9906 18.2635 10.8671 18.0716C10.7436 17.8796 10.5583 17.5253 10.5583 17.1857C10.5583 16.8461 11.3611 16.5951 11.3611 16.5951C11.3611 16.5951 11.3303 14.3952 11.3611 13.9375C11.392 13.4798 12.1022 13.2879 12.1022 13.2879C12.1022 13.2879 11.4538 6.89495 17.4752 2.89381C17.4443 2.55423 17.4752 2.37706 17.7222 2.24418C17.9692 2.1113 19.5749 1.10733 20.069 0.944918C20.563 0.78251 21.1189 1.12209 21.1189 1.12209L21.9835 0.88586L22.2305 0.413401C22.2305 0.413401 22.2923 0 24.4538 0C26.6153 0 26.6771 0.413401 26.6771 0.413401L26.9241 0.88586L27.7887 1.12209C27.7887 1.12209 28.3445 0.78251 28.8386 0.944918C29.3326 1.10733 30.9383 2.1113 31.1854 2.24418C31.4324 2.37706 31.4633 2.55423 31.4324 2.89381C37.4545 6.89495 36.806 13.2879 36.806 13.2879C36.806 13.2879 37.5162 13.4798 37.5471 13.9375C37.578 14.3952 37.5471 16.5951 37.5471 16.5951C37.5471 16.5951 38.3499 16.8461 38.3499 17.1857C38.3499 17.5253 38.1647 17.8796 38.0412 18.0716C37.9176 18.2635 37.9485 18.1158 36.4355 18.544C37.1765 19.0017 37.5162 19.7399 37.6089 20.7291C37.7015 21.7183 36.4663 23.4901 35.7558 24.9222C35.0452 26.3543 33.9648 26.2215 33.9648 26.2215C33.9648 26.2215 33.6869 29.8683 32.5444 31.5957C32.6878 31.4808 32.8603 31.404 33.0445 31.3729C33.2288 31.3418 33.4183 31.3576 33.5942 31.4185L36.7444 35.021C36.7444 35.021 45.8542 38.904 47.4291 39.3322C49.0039 39.7604 49.1896 40.5872 48.6029 41.222ZM12.9051 46.1238C12.9668 46.7043 13.0904 47.5412 13.0904 47.5412C13.0904 47.5412 13.1316 47.925 13.4609 47.9546C13.6703 47.9749 13.8771 48.0144 14.0785 48.0727L13.8315 45.297L13.1521 45.5332C13.1521 45.5332 12.8433 45.5433 12.9051 46.1238ZM9.69368 48.7814C9.69368 48.7814 10.0848 48.5552 10.373 48.368C10.6612 48.1808 10.5583 47.8365 10.5583 47.8365C10.5583 47.8365 10.4553 46.6848 10.373 46.36C10.2907 46.0352 9.94071 46.0647 9.94071 46.0647H9.32314L9.69368 48.7814ZM9.01435 44.5883L13.5844 43.8796L13.4609 42.8756L8.89083 43.8206L9.01435 44.5883ZM11.6699 36.3793C9.57017 37.216 7.47041 38.092 7.47041 38.092C7.47041 38.092 8.60261 42.1374 8.70556 42.9938C11.2376 42.5902 13.2756 42.167 13.2756 42.167C13.2756 42.167 12.2669 37.7278 11.6699 36.3793ZM24.4538 46.3512C24.8587 45.519 27.1552 40.8352 28.036 39.8047C26.6083 40.4085 25.0676 40.5065 24.4541 40.5139C23.8403 40.5065 22.2997 40.4085 20.8721 39.8047C21.7526 40.835 24.0488 45.519 24.4538 46.3512ZM19.6984 37.8558C19.7992 38.4436 21.578 39.644 24.4538 39.7957C27.3298 39.644 29.1087 38.4436 29.2095 37.8558C29.3124 37.2553 28.6537 35.7002 28.1596 35.3163C27.238 35.7176 25.2246 35.7792 24.4541 35.7878C23.6834 35.7792 21.6702 35.7176 20.7487 35.3163C20.2543 35.7002 19.5955 37.2553 19.6984 37.8558ZM26.2448 28.4656C25.6894 28.6113 24.9874 28.6687 24.4538 28.6907C23.9201 28.6687 23.2181 28.6113 22.6628 28.4656C21.6231 28.1929 20.2647 27.1045 20.1307 26.2805C19.8528 26.3424 19.6367 26.0443 19.6367 26.0443C19.6367 26.0443 19.0089 31.5535 22.2305 32.0681C23.126 32.2482 23.2702 31.8487 23.3421 31.7138C23.4141 31.5789 23.3421 30.6508 23.3421 30.6508L22.1687 29.4106C22.1687 29.4106 23.5722 29.8257 24.4538 29.8896C25.3354 29.8257 26.7388 29.4106 26.7388 29.4106L25.5654 30.6508C25.5654 30.6508 25.4935 31.5789 25.5654 31.7138C25.6373 31.8487 25.7816 32.2482 26.6771 32.0681C29.8989 31.5535 29.2709 26.0443 29.2709 26.0443C29.2709 26.0443 29.0547 26.3424 28.7768 26.2805C28.6432 27.1045 27.2847 28.1929 26.2448 28.4656ZM27.4799 26.5758C25.6581 27.0258 24.4538 26.2215 24.4538 26.2215C24.4538 26.2215 23.2495 27.0258 21.4277 26.5758C22.42 27.5353 23.866 27.66 24.4538 27.6869C25.0416 27.66 26.4877 27.5353 27.4799 26.5758ZM15.8077 32.4815L13.1521 35.3754C13.1521 35.3754 14.5931 37.4719 16.9811 38.6826C17.5163 37.0585 19.7602 35.021 19.7602 35.021C17.084 33.9974 15.8077 32.4815 15.8077 32.4815ZM15.8695 15.8274C14.1197 16.3983 13.5227 16.9495 13.5227 16.9495C13.7234 17.4136 13.9502 17.867 14.202 18.3078C14.3564 17.1238 15.8695 15.8274 15.8695 15.8274ZM12.3493 20.7291C12.4623 21.2438 13.9241 24.6241 14.1402 24.8631C14.3564 25.1022 14.8196 25.2765 14.8196 25.2765V24.2726C14.8196 24.2726 14.1507 23.5414 14.2638 23.0914C14.3768 22.6415 14.5417 21.8878 14.5108 21.7331C14.4799 21.5784 13.8932 20.3748 13.8932 20.3748C13.8932 20.3748 13.6566 19.8601 13.0286 20.3748C13.6153 19.6886 13.8006 19.742 13.8932 19.7842C13.9858 19.8264 14.6343 20.2567 14.6343 20.2567C14.6343 20.2567 14.4799 18.9349 13.6462 18.9574C12.8124 18.9799 12.2362 20.2144 12.3493 20.7291ZM13.0904 13.0517C14.6034 12.4977 17.5265 11.6175 20.2543 11.3981C20.6146 6.45408 18.2162 3.6025 18.2162 3.6025C14.2432 6.24041 13.3476 9.39295 13.0904 13.0517ZM28.7154 1.88984C28.561 1.79841 28.4581 1.9222 28.1596 2.24418C27.0374 3.45202 26.1215 7.32311 26.1215 7.32311V1.53549C26.1215 1.011 25.5657 1.06303 25.5657 1.06303L24.4541 0.961809L23.3421 1.06303C23.3421 1.06303 22.7863 1.011 22.7863 1.53549V7.32311C22.7863 7.32311 21.8704 3.45202 20.7483 2.24418C20.4497 1.9222 20.3469 1.79841 20.1925 1.88984C20.0381 1.98126 18.525 2.83475 18.525 2.83475C18.525 2.83475 21.3146 5.05643 21.0571 11.28C22.1839 11.1475 23.3186 11.087 24.4538 11.0988C25.589 11.087 26.7237 11.1475 27.8505 11.28C27.593 5.05643 30.3825 2.83475 30.3825 2.83475C30.3825 2.83475 28.87 1.98126 28.7154 1.88984ZM30.6916 3.6025C30.6916 3.6025 28.2931 6.45408 28.6536 11.3981C31.3816 11.6175 34.3048 12.4977 35.8181 13.0517C35.5608 9.39295 34.6652 6.24041 30.6918 3.6025H30.6916ZM36.4973 16.0636V14.2919C31.6345 11.9422 25.5797 11.8617 24.4538 11.8682C23.3279 11.8617 17.2736 11.9422 12.411 14.2919V16.0636C12.411 16.0636 16.7916 13.8371 24.4538 13.8194C32.1166 13.8371 36.4975 16.0636 36.4975 16.0636H36.4973ZM34.0887 25.2765C34.0887 25.2765 34.5519 25.1022 34.7681 24.8631C34.9842 24.6241 36.4461 21.2438 36.5595 20.7291C36.6729 20.2144 36.0963 18.9799 35.2622 18.9574C34.4281 18.9349 34.2741 20.2567 34.2741 20.2567C34.2741 20.2567 34.9225 19.8264 35.0152 19.7842C35.1078 19.742 35.2931 19.6886 35.8798 20.3748C35.2517 19.8601 35.0152 20.3748 35.0152 20.3748C35.0152 20.3748 34.4285 21.5784 34.3976 21.7331C34.3667 21.8878 34.5315 22.6415 34.6446 23.0914C34.7577 23.5414 34.0888 24.2726 34.0888 24.2726L34.0887 25.2765ZM34.7063 18.3078C34.9581 17.867 35.1848 17.4136 35.3856 16.9495C35.3856 16.9495 34.7886 16.3983 33.0388 15.8274C33.0388 15.8274 34.5518 17.1238 34.7063 18.3078ZM33.0388 24.5679C33.255 22.5431 33.3578 20.2144 33.1006 18.3078C32.8434 16.4011 32.102 15.7064 31.1861 15.473C30.3339 15.2559 25.8022 14.8441 24.454 14.8217C23.1058 14.8441 18.5746 15.2559 17.7224 15.473C16.8064 15.7064 16.0651 16.4011 15.8079 18.3078C15.5507 20.2144 15.6535 22.5431 15.8696 24.5679C16.0858 26.5926 16.7651 28.3898 19.2663 30.8279C19.0297 30.5298 18.1031 26.3621 18.5252 24.6269C18.7414 25.0769 19.8323 25.0235 20.5015 24.8631C21.1706 24.7028 22.035 24.5904 21.9837 24.3316C21.9741 24.2133 21.9171 24.1031 21.8246 24.024C21.6826 23.8217 21.4356 23.415 21.4284 23.0337C21.4672 23.0324 21.4894 23.0324 21.4894 23.0324C21.4894 23.0324 21.582 23.5077 22.354 23.9182C23.0142 24.2023 23.7299 24.3491 24.4538 24.3491C25.1777 24.3491 25.8934 24.2023 26.5535 23.9182C27.3255 23.5077 27.4181 23.0324 27.4181 23.0324C27.4181 23.0324 27.4403 23.0324 27.4794 23.0337C27.472 23.415 27.2251 23.8217 27.0831 24.024C26.9907 24.1032 26.9337 24.2133 26.9241 24.3316C26.8728 24.5904 27.7372 24.7028 28.4063 24.8631C29.0754 25.0235 30.1664 25.0769 30.3825 24.6269C30.8046 26.3621 29.878 30.5298 29.6414 30.8279C32.1434 28.3898 32.8225 26.5926 33.0388 24.5679H33.0388ZM33.1006 32.4815C33.1006 32.4815 31.8242 33.9974 29.1481 35.021C29.1481 35.021 31.3921 37.0585 31.9272 38.6826C34.3153 37.4719 35.7562 35.3754 35.7562 35.3754L33.1006 32.4815ZM38.5358 48.368C38.8242 48.5552 39.2152 48.7814 39.2152 48.7814L39.5857 46.0647H38.9681C38.9681 46.0647 38.618 46.0352 38.5358 46.36C38.4537 46.6848 38.3506 47.8365 38.3506 47.8365C38.3506 47.8365 38.2474 48.1808 38.5358 48.368ZM34.8299 48.0727C35.0313 48.0144 35.2382 47.9749 35.4475 47.9546C35.7769 47.925 35.8181 47.5412 35.8181 47.5412C35.8181 47.5412 35.9416 46.7043 36.0033 46.1238C36.0651 45.5433 35.7563 45.5332 35.7563 45.5332L35.077 45.297L34.8299 48.0727ZM35.324 43.8796L39.8944 44.5883L40.018 43.8206L35.4475 42.8756L35.324 43.8796ZM37.2389 36.3793C36.6417 37.7278 35.6328 42.167 35.6328 42.167C35.6328 42.167 37.6712 42.5902 40.2032 42.9938C40.3064 42.1374 41.4384 38.092 41.4384 38.092C41.4384 38.092 39.3386 37.216 37.2389 36.3793ZM31.433 20.4929C29.4691 20.3092 27.9309 20.4846 27.7275 20.552C27.5241 20.6193 26.4923 20.3157 26.4923 20.3157C26.4923 20.3157 26.1527 20.7734 25.9365 22.619C25.9365 22.619 25.5998 20.3813 25.6895 19.607C25.7792 18.8328 26.4027 17.0003 27.1099 16.1227C27.8172 15.2451 30.7568 16.9855 31.9275 18.485C30.2569 17.7402 28.2246 17.3398 27.7893 17.7172C27.354 18.0946 26.6962 19.3478 26.7394 19.4889C26.7827 19.6301 27.4526 18.772 27.9746 18.7212C28.4966 18.6704 31.0007 19.7252 31.0007 19.7252C31.0007 19.7252 29.0272 19.7907 28.901 19.9023C28.7747 20.0139 30.9418 20.1451 31.433 20.4929ZM22.4158 20.3157C22.4158 20.3157 21.3844 20.6193 21.1806 20.552C20.9768 20.4846 19.4391 20.3092 17.4752 20.4929C17.9663 20.1451 20.1336 20.0139 20.0072 19.9023C19.8808 19.7907 17.9075 19.7252 17.9075 19.7252C17.9075 19.7252 20.4116 18.6704 20.9336 18.7212C21.4556 18.772 22.1255 19.6301 22.1687 19.4889C22.212 19.3478 21.5541 18.0946 21.1189 17.7172C20.6837 17.3398 18.6515 17.7402 16.9811 18.485C18.1516 16.9855 21.0909 15.2451 21.7982 16.1227C22.5055 17.0003 23.1289 18.8328 23.2186 19.607C23.3084 20.3813 22.9716 22.619 22.9716 22.619C22.7554 20.7734 22.4158 20.3157 22.4158 20.3157Z" fill="#222222"/>
</svg>
