<svg width="209" height="54" viewBox="0 0 209 54" fill="none" xmlns="http://www.w3.org/2000/svg">
<path d="M63.6547 46.2851L63.1195 46.6957C62.8242 46.3112 62.4689 46.0206 62.0537 45.8237C61.6415 45.6238 61.1878 45.5238 60.6926 45.5238C60.1512 45.5238 59.6498 45.6545 59.1885 45.916C58.7271 46.1744 58.3687 46.5235 58.1134 46.9633C57.8612 47.4001 57.7351 47.8923 57.7351 48.4398C57.7351 49.2672 58.0181 49.9577 58.584 50.5114C59.1531 51.0651 59.8698 51.3419 60.7341 51.3419C61.6846 51.3419 62.4797 50.9697 63.1195 50.2253L63.6547 50.6314C63.3163 51.062 62.8934 51.3957 62.3859 51.6326C61.8814 51.8663 61.317 51.9832 60.6926 51.9832C59.5053 51.9832 58.5687 51.588 57.8827 50.7975C57.3075 50.13 57.02 49.3241 57.02 48.3798C57.02 47.3863 57.3675 46.5512 58.0627 45.8745C58.7609 45.1947 59.6345 44.8548 60.6834 44.8548C61.317 44.8548 61.8891 44.9809 62.3997 45.2331C62.9103 45.4823 63.3286 45.8329 63.6547 46.2851ZM64.3514 46.7926H67.6549V47.3509H66.3261V51.8125H65.6755V47.3509H64.3514V46.7926ZM68.5407 46.7926H69.1821V47.7154C69.4374 47.3647 69.7311 47.1018 70.0633 46.9264C70.3955 46.7511 70.7662 46.6634 71.1753 46.6634C71.8889 46.6634 72.4994 46.9203 73.007 47.434C73.5145 47.9476 73.7682 48.5659 73.7682 49.2887C73.7682 50.0269 73.516 50.6544 73.0116 51.1712C72.5102 51.6848 71.9042 51.9417 71.1937 51.9417C70.7938 51.9417 70.4263 51.8586 70.091 51.6925C69.7557 51.5264 69.4528 51.2788 69.1821 50.9497V53.6488H68.5407V46.7926ZM71.1245 47.2863C70.5647 47.2863 70.0925 47.4816 69.7081 47.8723C69.3266 48.2629 69.1359 48.7489 69.1359 49.3302C69.1359 49.7117 69.2205 50.0546 69.3897 50.3591C69.5619 50.6636 69.8065 50.9051 70.1233 51.0835C70.4432 51.2619 70.78 51.3511 71.1337 51.3511C71.4813 51.3511 71.8074 51.2619 72.1119 51.0835C72.4195 50.902 72.664 50.6498 72.8455 50.3268C73.027 50.0039 73.1177 49.6655 73.1177 49.3118C73.1177 48.955 73.027 48.6166 72.8455 48.2967C72.6671 47.9768 72.4256 47.7292 72.1211 47.5539C71.8166 47.3755 71.4844 47.2863 71.1245 47.2863ZM77.3578 46.6634C78.1299 46.6634 78.7697 46.9433 79.2772 47.5032C79.7386 48.0138 79.9693 48.6182 79.9693 49.3164C79.9693 50.0177 79.7247 50.6314 79.2357 51.1573C78.7497 51.6802 78.1237 51.9417 77.3578 51.9417C76.5889 51.9417 75.9598 51.6802 75.4708 51.1573C74.9848 50.6314 74.7418 50.0177 74.7418 49.3164C74.7418 48.6212 74.9725 48.0184 75.4338 47.5078C75.9414 46.9449 76.5827 46.6634 77.3578 46.6634ZM77.3578 47.2955C76.8226 47.2955 76.3628 47.4939 75.9783 47.8907C75.5938 48.2875 75.4016 48.7674 75.4016 49.3302C75.4016 49.6932 75.4892 50.0316 75.6645 50.3453C75.8399 50.659 76.0767 50.902 76.3751 51.0743C76.6734 51.2435 77.001 51.328 77.3578 51.328C77.7146 51.328 78.0422 51.2435 78.3406 51.0743C78.6389 50.902 78.8758 50.659 79.0511 50.3453C79.2264 50.0316 79.3141 49.6932 79.3141 49.3302C79.3141 48.7674 79.1203 48.2875 78.7328 47.8907C78.3483 47.4939 77.89 47.2955 77.3578 47.2955ZM81.8194 46.7926V50.5068L85.5059 46.7926H85.5566V51.8125H84.9107V48.1306L81.2519 51.8125H81.1735V46.7926H81.8194ZM86.4333 46.7926H89.7368V47.3509H88.408V51.8125H87.7575V47.3509H86.4333V46.7926ZM94.8397 50.1469L95.3842 50.433C95.2058 50.7836 94.9997 51.0666 94.7659 51.2819C94.5321 51.4972 94.2691 51.6618 93.9769 51.7756C93.6847 51.8863 93.3541 51.9417 92.985 51.9417C92.1668 51.9417 91.527 51.6741 91.0656 51.1389C90.6042 50.6006 90.3735 49.9931 90.3735 49.3164C90.3735 48.6797 90.5688 48.1122 90.9595 47.6139C91.4547 46.9803 92.1176 46.6634 92.948 46.6634C93.8031 46.6634 94.486 46.9879 94.9966 47.637C95.3596 48.0953 95.5441 48.6674 95.5503 49.3533H91.0379C91.0502 49.9377 91.2363 50.4176 91.5962 50.7928C91.9561 51.165 92.4005 51.3511 92.9296 51.3511C93.1849 51.3511 93.4325 51.3065 93.6724 51.2173C93.9154 51.1281 94.1215 51.0097 94.2907 50.862C94.4599 50.7144 94.6429 50.476 94.8397 50.1469ZM94.8397 48.795C94.7536 48.4505 94.6275 48.1752 94.4614 47.9692C94.2984 47.7631 94.0815 47.597 93.8108 47.4709C93.5402 47.3447 93.2556 47.2817 92.9573 47.2817C92.4651 47.2817 92.0422 47.4401 91.6885 47.7569C91.4301 47.9876 91.2348 48.3337 91.1025 48.795H94.8397ZM101.008 51.8125H100.321L98.6415 48.1583L96.9759 51.8125H96.2839L98.5816 46.7926H98.6969L101.008 51.8125ZM102.642 48.7812H103.255C103.744 48.7812 104.127 48.8196 104.404 48.8965C104.681 48.9734 104.919 49.1442 105.119 49.4087C105.319 49.6701 105.419 49.9716 105.419 50.313C105.419 50.7252 105.275 51.0789 104.986 51.3742C104.696 51.6664 104.258 51.8125 103.671 51.8125H102V46.7926H102.642V48.7812ZM102.665 49.3718V51.2681H103.408C104.281 51.2681 104.718 50.9605 104.718 50.3453C104.718 50.17 104.67 49.9977 104.575 49.8285C104.483 49.6594 104.346 49.5409 104.164 49.4733C103.986 49.4056 103.669 49.3718 103.214 49.3718H102.665ZM110.024 49.3948H107.108V51.8125H106.457V46.7926H107.108V48.7858H110.024V46.7926H110.67V51.8125H110.024V49.3948ZM112.755 48.7812H113.369C113.858 48.7812 114.241 48.8196 114.518 48.8965C114.795 48.9734 115.033 49.1442 115.233 49.4087C115.433 49.6701 115.533 49.9716 115.533 50.313C115.533 50.7252 115.388 51.0789 115.099 51.3742C114.81 51.6664 114.372 51.8125 113.784 51.8125H112.114V46.7926H112.755V48.7812ZM112.778 49.3718V51.2681H113.521C114.395 51.2681 114.832 50.9605 114.832 50.3453C114.832 50.17 114.784 49.9977 114.689 49.8285C114.596 49.6594 114.459 49.5409 114.278 49.4733C114.099 49.4056 113.783 49.3718 113.327 49.3718H112.778ZM116.423 46.7926H117.074V51.8125H116.423V46.7926ZM119.099 46.7926V50.5068L122.786 46.7926H122.837V51.8125H122.191V48.1306L118.532 51.8125H118.453V46.7926H119.099ZM119.012 44.7764H119.621C119.725 44.9363 119.865 45.0563 120.041 45.1363C120.216 45.2162 120.425 45.2562 120.668 45.2562C120.914 45.2562 121.113 45.2208 121.263 45.1501C121.414 45.0793 121.557 44.9548 121.692 44.7764H122.283C122.215 45.0532 122.041 45.2854 121.762 45.4731C121.485 45.6576 121.119 45.7499 120.663 45.7499C120.211 45.7499 119.842 45.6592 119.556 45.4777C119.27 45.2931 119.089 45.0594 119.012 44.7764ZM132.346 46.7926H132.53L134.233 51.8125H133.559L132.318 48.1168L130.389 51.8125H130.27L128.336 48.1168L127.1 51.8125H126.426L128.138 46.7926H128.313L130.334 50.719L132.346 46.7926ZM140.203 46.7926V51.8125H139.566V50.9497C139.296 51.2788 138.991 51.5264 138.653 51.6925C138.318 51.8586 137.95 51.9417 137.55 51.9417C136.84 51.9417 136.232 51.6848 135.728 51.1712C135.226 50.6544 134.976 50.0269 134.976 49.2887C134.976 48.5659 135.229 47.9476 135.737 47.434C136.244 46.9203 136.855 46.6634 137.569 46.6634C137.981 46.6634 138.353 46.7511 138.685 46.9264C139.02 47.1018 139.314 47.3647 139.566 47.7154V46.7926H140.203ZM137.619 47.2863C137.26 47.2863 136.927 47.3755 136.623 47.5539C136.318 47.7292 136.075 47.9768 135.894 48.2967C135.715 48.6166 135.626 48.955 135.626 49.3118C135.626 49.6655 135.717 50.0039 135.898 50.3268C136.08 50.6498 136.323 50.902 136.627 51.0835C136.935 51.2619 137.264 51.3511 137.615 51.3511C137.969 51.3511 138.304 51.2619 138.621 51.0835C138.937 50.9051 139.18 50.6636 139.35 50.3591C139.522 50.0546 139.608 49.7117 139.608 49.3302C139.608 48.7489 139.416 48.2629 139.031 47.8723C138.65 47.4816 138.179 47.2863 137.619 47.2863ZM142.302 47.3601V51.8125H141.661V46.7926H144.199V47.3601H142.302ZM150.077 46.7926V51.8125H149.44V50.9497C149.169 51.2788 148.865 51.5264 148.527 51.6925C148.191 51.8586 147.824 51.9417 147.424 51.9417C146.713 51.9417 146.106 51.6848 145.601 51.1712C145.1 50.6544 144.849 50.0269 144.849 49.2887C144.849 48.5659 145.103 47.9476 145.611 47.434C146.118 46.9203 146.729 46.6634 147.442 46.6634C147.854 46.6634 148.227 46.7511 148.559 46.9264C148.894 47.1018 149.188 47.3647 149.44 47.7154V46.7926H150.077ZM147.493 47.2863C147.133 47.2863 146.801 47.3755 146.496 47.5539C146.192 47.7292 145.949 47.9768 145.767 48.2967C145.589 48.6166 145.5 48.955 145.5 49.3118C145.5 49.6655 145.591 50.0039 145.772 50.3268C145.954 50.6498 146.197 50.902 146.501 51.0835C146.809 51.2619 147.138 51.3511 147.488 51.3511C147.842 51.3511 148.177 51.2619 148.494 51.0835C148.811 50.9051 149.054 50.6636 149.223 50.3591C149.395 50.0546 149.482 49.7117 149.482 49.3302C149.482 48.7489 149.289 48.2629 148.905 47.8723C148.523 47.4816 148.053 47.2863 147.493 47.2863ZM152.375 48.9058H152.711C152.927 48.9058 153.123 48.835 153.302 48.6935C153.483 48.552 153.574 48.349 153.574 48.0845C153.574 47.86 153.502 47.6677 153.357 47.5078C153.213 47.3447 152.991 47.2632 152.693 47.2632C152.345 47.2632 151.996 47.3986 151.646 47.6693L151.281 47.2217C151.733 46.8434 152.213 46.6542 152.721 46.6542C153.139 46.6542 153.49 46.7788 153.773 47.0279C154.055 47.2771 154.197 47.5985 154.197 47.9922C154.197 48.5151 153.966 48.8704 153.505 49.058C154.108 49.3103 154.409 49.7516 154.409 50.3822C154.409 50.7821 154.268 51.1435 153.985 51.4665C153.705 51.7864 153.285 51.9463 152.725 51.9463C152.039 51.9463 151.487 51.7233 151.069 51.2773L151.475 50.8159C151.785 51.1666 152.184 51.3419 152.67 51.3419C152.996 51.3419 153.251 51.2542 153.436 51.0789C153.623 50.9036 153.717 50.6729 153.717 50.3868C153.717 50.1069 153.623 49.8824 153.436 49.7132C153.248 49.544 153.027 49.4594 152.771 49.4594H152.375V48.9058ZM156.176 46.7926V50.5068L159.863 46.7926H159.914V51.8125H159.268V48.1306L155.609 51.8125H155.53V46.7926H156.176ZM164.92 49.3948H162.004V51.8125H161.353V46.7926H162.004V48.7858H164.92V46.7926H165.566V51.8125H164.92V49.3948Z" fill="white"/>
<g filter="url(#filter0_d_487_66557)">
<path d="M75.0503 12.9727C75.0746 13.0701 75.0989 13.1553 75.1233 13.2283C75.1476 13.3014 75.1842 13.3744 75.2328 13.4474C75.2572 13.4718 75.2694 13.4961 75.2694 13.5205C75.2937 13.5448 75.318 13.5692 75.3424 13.5935C75.4154 13.7152 75.4763 13.8613 75.525 14.0317C75.598 14.2021 75.6345 14.4334 75.6345 14.7255C75.6345 14.7498 75.6345 14.7742 75.6345 14.7985C75.6345 14.7985 75.6345 14.8107 75.6345 14.835C75.5858 15.0541 75.4398 15.2611 75.1963 15.4558C74.9772 15.6262 74.6973 15.7114 74.3565 15.7114C74.2347 15.7114 74.113 15.7114 73.9913 15.7114C73.8939 15.6871 73.7966 15.6627 73.6992 15.6384C73.6748 15.6384 73.6627 15.6384 73.6627 15.6384C73.6627 15.6384 73.6505 15.6384 73.6261 15.6384C73.5288 15.614 73.4192 15.6019 73.2975 15.6019C73.1758 15.5775 73.0419 15.5654 72.8958 15.5654C72.7011 15.5654 72.5063 15.5654 72.3116 15.5654C72.1168 15.5654 71.9221 15.5775 71.7273 15.6019C70.7779 15.6262 69.9015 15.7114 69.0982 15.8575C68.3192 16.0035 67.9297 16.1861 67.9297 16.4052C67.9297 16.5513 67.9419 16.6608 67.9662 16.7339C67.9905 16.7826 68.0149 16.8312 68.0392 16.8799C68.0392 16.9286 68.0514 16.9773 68.0757 17.026C68.1001 17.0747 68.1123 17.1721 68.1123 17.3181C68.1123 17.5616 68.0879 17.805 68.0392 18.0484C68.0149 18.2919 67.9784 18.511 67.9297 18.7057C67.9053 18.8031 67.881 18.9005 67.8566 18.9978C67.8323 19.0709 67.808 19.1439 67.7836 19.2169C67.7836 19.2413 67.7714 19.2778 67.7471 19.3265C67.7471 19.3508 67.7471 19.3752 67.7471 19.3995C67.7228 19.4725 67.6984 19.5334 67.6741 19.5821C67.6741 19.6308 67.6741 19.6916 67.6741 19.7647C67.6741 19.8621 67.7228 19.9594 67.8201 20.0568C67.9175 20.1298 68.0879 20.1663 68.3314 20.1663C68.6965 20.1663 69.0008 20.1663 69.2442 20.1663C69.4877 20.1663 69.719 20.1663 69.9381 20.1663C69.9867 20.1663 70.0233 20.1663 70.0476 20.1663C70.0963 20.1663 70.1328 20.1663 70.1571 20.1663C70.3762 20.1663 70.6318 20.2272 70.924 20.3489C71.2161 20.4706 71.5204 20.6532 71.8369 20.8967C72.3968 21.3349 72.908 21.9678 73.3705 22.7955C73.8574 23.6232 74.1009 24.6456 74.1009 25.8628C74.1009 25.9358 74.1009 26.0089 74.1009 26.0819C74.1009 26.1549 74.1009 26.2401 74.1009 26.3375C74.0522 27.506 73.6748 28.7719 72.9689 30.1352C72.2872 31.4741 70.8023 33.2268 68.5139 35.3934C68.4409 35.4665 68.3557 35.5395 68.2583 35.6125C68.1609 35.6856 68.0514 35.7586 67.9297 35.8316C67.7593 35.9533 67.5767 36.0751 67.3819 36.1968C67.1872 36.2942 66.9924 36.3915 66.7977 36.4889C66.5299 36.6106 66.2621 36.6958 65.9943 36.7445C65.7509 36.8176 65.5318 36.8541 65.3371 36.8541C65.3127 36.8541 65.2762 36.8541 65.2275 36.8541C65.2032 36.8541 65.1788 36.8541 65.1545 36.8541C64.7406 36.8297 64.2781 36.6958 63.7669 36.4524C63.28 36.209 62.5375 35.7099 61.5394 34.9552C61.1012 35.4421 60.7604 35.8073 60.517 36.0507C60.2979 36.2698 60.1031 36.4159 59.9327 36.4889C59.8597 36.5133 59.7867 36.5376 59.7136 36.5619C59.6406 36.5619 59.5554 36.5619 59.458 36.5619C59.2146 36.5619 58.8738 36.3672 58.4356 35.9777C57.9974 35.5638 57.2062 34.8335 56.062 33.7867C55.9647 33.6894 55.8795 33.6042 55.8064 33.5311C55.7334 33.4338 55.6725 33.3364 55.6239 33.239C55.5752 33.1173 55.5387 32.9956 55.5143 32.8738C55.49 32.7278 55.4778 32.5696 55.4778 32.3991C55.4778 32.3018 55.4778 32.2166 55.4778 32.1435C55.4778 32.0705 55.49 31.9975 55.5143 31.9244C55.5143 31.7784 55.5387 31.6445 55.5873 31.5228C55.636 31.3767 55.7091 31.2063 55.8064 31.0115C56.1229 30.3299 56.4272 29.6848 56.7193 29.0762C57.0115 28.4433 57.3036 27.8225 57.5957 27.2139C57.6444 27.0922 57.6931 26.9705 57.7418 26.8487C57.8148 26.727 57.8757 26.6053 57.9244 26.4836C58.4843 25.2664 59.0563 23.9883 59.6406 22.6494C60.2248 21.3105 60.9065 19.7525 61.6855 17.9754C61.1743 17.732 60.8334 17.2451 60.663 16.5148C60.4926 15.7845 60.4074 14.7377 60.4074 13.3744C60.4074 13.3257 60.4074 13.277 60.4074 13.2283C60.4074 13.1553 60.4196 13.0945 60.4439 13.0458C60.4683 12.7536 60.5413 12.4859 60.663 12.2424C60.8091 11.9746 60.9917 11.7677 61.2108 11.6217C61.3568 11.5243 61.5881 11.4147 61.9046 11.293C62.221 11.1469 62.6349 11.0131 63.1461 10.8913C63.9495 10.6479 64.9841 10.4288 66.25 10.2341C67.5158 10.0393 68.9643 9.94192 70.5953 9.94192C71.7882 9.94192 72.7133 10.0758 73.3705 10.3436C74.0278 10.587 74.4538 10.9279 74.6486 11.366C74.7703 11.6338 74.8433 11.8651 74.8677 12.0598C74.9164 12.2302 74.9529 12.4007 74.9772 12.5711C74.9772 12.5954 74.9772 12.6198 74.9772 12.6441C75.0016 12.6684 75.0137 12.6928 75.0137 12.7171C75.0137 12.7658 75.0137 12.8145 75.0137 12.8632C75.0381 12.8875 75.0503 12.924 75.0503 12.9727ZM63.986 29.697C64.4485 29.697 64.8745 29.5387 65.264 29.2223C65.6535 28.8815 65.9943 28.5285 66.2865 28.1633C66.4569 27.9199 66.6029 27.6886 66.7247 27.4695C66.8464 27.2504 66.9438 27.0678 67.0168 26.9218C67.0898 26.8001 67.1507 26.6662 67.1994 26.5201C67.2481 26.374 67.2724 26.228 67.2724 26.0819C67.2724 26.0576 67.2724 26.0332 67.2724 26.0089C67.2724 25.9602 67.2602 25.9237 67.2359 25.8993C67.2359 25.8263 67.2115 25.7654 67.1628 25.7168C67.1385 25.6437 67.102 25.5829 67.0533 25.5342C66.9803 25.4611 66.8707 25.3881 66.7247 25.3151C66.6029 25.242 66.4812 25.2055 66.3595 25.2055C66.3108 25.2055 66.2743 25.2055 66.25 25.2055C66.2256 25.2055 66.2013 25.2055 66.1769 25.2055C66.1526 25.2055 66.1282 25.2055 66.1039 25.2055C66.0795 25.2055 66.0674 25.2055 66.0674 25.2055C66.043 25.2055 66.0187 25.2177 65.9943 25.242C65.97 25.242 65.9457 25.242 65.9213 25.242C65.7996 25.4855 65.6535 25.7776 65.4831 26.1184C65.3371 26.4592 65.1788 26.8122 65.0084 27.1774C64.9841 27.2504 64.9476 27.3356 64.8989 27.433C64.8745 27.506 64.8502 27.5791 64.8258 27.6521C64.6554 28.0172 64.4972 28.3824 64.3511 28.7476C64.2051 29.0884 64.0833 29.4048 63.986 29.697ZM95.4341 18.0484C95.4341 18.8274 95.2758 19.5943 94.9594 20.3489C94.6672 21.0792 94.3508 21.7365 94.01 22.3208C93.8639 22.5399 93.7178 22.759 93.5718 22.9781C93.4257 23.1972 93.2918 23.3919 93.1701 23.5623C92.951 23.8788 92.6102 24.2926 92.1476 24.8039C91.6851 25.2907 91.1739 25.802 90.614 26.3375C90.4436 26.5079 90.261 26.6783 90.0662 26.8487C89.8958 26.9948 89.7254 27.153 89.555 27.3234C88.8004 27.9807 88.0822 28.5528 87.4006 29.0397C86.719 29.5266 86.2321 29.77 85.94 29.77C85.5261 29.77 85.1366 29.6118 84.7715 29.2953C84.4306 28.9545 84.1263 28.5772 83.8586 28.1633C83.6638 27.8468 83.4934 27.5547 83.3473 27.2869C83.2256 26.9948 83.1404 26.7879 83.0917 26.6662C82.6292 27.5425 82.2275 28.4433 81.8867 29.3683C81.5702 30.2691 81.2538 31.1819 80.9373 32.107C80.9129 32.18 80.8886 32.2531 80.8643 32.3261C80.8399 32.3748 80.8156 32.4357 80.7912 32.5087C80.5965 33.0929 80.3896 33.6894 80.1705 34.298C79.9757 34.8822 79.7566 35.4665 79.5132 36.0507C79.4645 36.1238 79.428 36.1968 79.4036 36.2698C79.3793 36.3185 79.3428 36.3794 79.2941 36.4524C79.1967 36.5985 79.0872 36.7202 78.9654 36.8176C78.8681 36.9149 78.722 36.9636 78.5272 36.9636C78.3325 36.9636 78.1864 36.9514 78.0891 36.9271C78.016 36.9028 77.943 36.8662 77.87 36.8176C77.8213 36.7932 77.7604 36.7689 77.6874 36.7445C77.6387 36.7202 77.5778 36.6837 77.5048 36.635C77.3587 36.5376 77.2492 36.4524 77.1762 36.3794C77.1031 36.282 77.0423 36.1968 76.9936 36.1238C76.9936 36.1238 76.9814 36.1238 76.9571 36.1238C76.9571 36.0994 76.9571 36.0872 76.9571 36.0872C76.884 35.9899 76.7988 35.8803 76.7015 35.7586C76.6041 35.6369 76.4458 35.503 76.2268 35.3569C76.032 35.2352 75.8616 35.1378 75.7155 35.0648C75.5938 34.9918 75.4721 34.9309 75.3504 34.8822C75.326 34.8822 75.3139 34.8822 75.3139 34.8822C75.3139 34.8579 75.3139 34.8457 75.3139 34.8457C75.1921 34.797 75.0582 34.7362 74.9122 34.6631C74.7661 34.5901 74.5957 34.4805 74.401 34.3345C74.2306 34.2128 74.0967 34.0789 73.9993 33.9328C73.9019 33.7624 73.8411 33.6042 73.8167 33.4581C73.7924 33.3364 73.768 33.2268 73.7437 33.1295C73.7437 33.0321 73.7437 32.9347 73.7437 32.8373C73.7437 32.6669 73.7437 32.4965 73.7437 32.3261C73.768 32.1314 73.8167 31.9488 73.8897 31.7784C74.0115 31.4862 74.3888 30.5247 75.0217 28.8936C75.679 27.2626 76.4215 25.4977 77.2492 23.5988C77.3953 23.258 77.5413 22.9172 77.6874 22.5764C77.8578 22.2112 78.0282 21.8582 78.1986 21.5174C78.7098 20.3733 79.221 19.3265 79.7323 18.3771C80.2435 17.4033 80.6939 16.6487 81.0834 16.1131C81.0347 16.0401 80.9738 15.9305 80.9008 15.7845C80.8277 15.614 80.7425 15.4315 80.6452 15.2367C80.6208 15.115 80.5843 15.0054 80.5356 14.9081C80.4869 14.7864 80.4382 14.6768 80.3896 14.5794C80.3165 14.336 80.2557 14.1047 80.207 13.8856C80.1583 13.6665 80.1339 13.484 80.1339 13.3379C80.1339 13.2892 80.1583 13.1918 80.207 13.0458C80.28 12.8754 80.3774 12.705 80.4991 12.5345C80.5721 12.4128 80.6695 12.3033 80.7912 12.2059C80.9129 12.0842 81.0468 11.9868 81.1929 11.9138C81.8989 11.5486 82.7996 11.22 83.8951 10.9279C85.0149 10.6114 86.1956 10.4531 87.4371 10.4531C88.8004 10.4531 89.981 10.6844 90.9791 11.1469C92.0016 11.5851 92.8901 12.2911 93.6448 13.2649C93.9369 13.6544 94.1804 14.0074 94.3751 14.3238C94.5942 14.6403 94.7768 14.9568 94.9228 15.2732C95.0933 15.6871 95.215 16.1131 95.288 16.5513C95.3854 16.9895 95.4341 17.4885 95.4341 18.0484ZM89.1533 18.3771C89.2264 18.231 89.2751 18.1093 89.2994 18.0119C89.3481 17.8902 89.3724 17.7807 89.3724 17.6833C89.3724 17.5616 89.3359 17.452 89.2629 17.3546C89.1899 17.2573 89.0803 17.1842 88.9343 17.1355C88.8612 17.0868 88.776 17.0625 88.6786 17.0625C88.6056 17.0625 88.5204 17.0625 88.423 17.0625C88.3743 17.0625 88.3135 17.0625 88.2405 17.0625C88.1918 17.0625 88.1431 17.0747 88.0944 17.099C87.924 17.1234 87.7536 17.1599 87.5832 17.2086C87.4371 17.2573 87.3032 17.3181 87.1815 17.3911C87.0354 17.5859 86.8285 17.9632 86.5607 18.5231C86.2929 19.083 86.013 19.7038 85.7209 20.3854C85.6965 20.4585 85.6722 20.5315 85.6478 20.6045C85.6235 20.6776 85.587 20.7506 85.5383 20.8236C85.4653 21.0184 85.3922 21.2131 85.3192 21.4079C85.2462 21.5783 85.1731 21.7487 85.1001 21.9191C85.587 21.8461 86.0617 21.6392 86.5242 21.2983C87.0111 20.9332 87.4493 20.5437 87.8388 20.1298C88.1796 19.7403 88.4717 19.3752 88.7152 19.0344C88.9586 18.6935 89.1047 18.4745 89.1533 18.3771ZM104.574 14.2873C104.33 14.8716 104.087 15.4193 103.844 15.9305C103.624 16.4417 103.418 16.9408 103.223 17.4277C102.931 18.1336 102.639 18.8518 102.346 19.5821C102.079 20.3124 101.811 21.1401 101.543 22.0652C102.249 20.921 103.211 19.5091 104.428 17.8293C105.669 16.1496 106.984 14.4212 108.372 12.6441C108.469 12.498 108.566 12.352 108.664 12.2059C108.785 12.0598 108.895 11.9259 108.992 11.8042C109.114 11.6338 109.236 11.4756 109.357 11.3295C109.503 11.1591 109.637 10.9887 109.759 10.8183C109.783 10.7696 109.808 10.7209 109.832 10.6722C109.881 10.6236 109.93 10.5749 109.978 10.5262C110.1 10.4288 110.222 10.3314 110.343 10.2341C110.489 10.1367 110.648 10.088 110.818 10.088C110.94 10.088 111.049 10.1123 111.147 10.161C111.268 10.1854 111.378 10.2341 111.475 10.3071C111.621 10.3801 111.767 10.4897 111.914 10.6357C112.06 10.7574 112.23 10.9035 112.425 11.0739C113.399 11.9503 114.031 12.5954 114.324 13.0093C114.64 13.3988 114.823 13.7517 114.871 14.0682C114.871 14.0926 114.871 14.1291 114.871 14.1778C114.871 14.2264 114.871 14.2751 114.871 14.3238C114.871 14.4212 114.847 14.5307 114.798 14.6525C114.774 14.7742 114.737 14.8959 114.689 15.0176C114.664 15.0663 114.64 15.115 114.616 15.1637C114.591 15.2124 114.567 15.2611 114.543 15.3097C114.518 15.3828 114.482 15.4558 114.433 15.5288C114.409 15.5775 114.384 15.6384 114.36 15.7114C113.995 16.5148 113.593 17.4033 113.155 18.3771C112.717 19.3265 112.267 20.3489 111.804 21.4444C111.122 23.0268 110.465 24.7187 109.832 26.5201C109.224 28.2972 108.737 30.0986 108.372 31.9244C108.298 32.2653 108.225 32.6182 108.152 32.9834C108.104 33.3242 108.055 33.665 108.006 34.0058C107.909 34.8092 107.678 35.4665 107.313 35.9777C106.947 36.4646 106.375 36.708 105.596 36.708C105.28 36.708 104.988 36.6837 104.72 36.635C104.476 36.5619 104.233 36.4646 103.99 36.3428C103.868 36.2698 103.746 36.209 103.624 36.1603C103.503 36.0872 103.369 36.0264 103.223 35.9777C103.174 35.929 103.113 35.8925 103.04 35.8681C102.992 35.8438 102.943 35.8195 102.894 35.7951C102.383 35.576 101.993 35.2961 101.726 34.9552C101.458 34.6144 101.324 34.2128 101.324 33.7502C101.324 33.2634 101.47 32.5574 101.762 31.6323C102.079 30.7072 102.432 29.7335 102.821 28.711C102.845 28.6137 102.882 28.5163 102.931 28.4189C102.979 28.3215 103.016 28.2242 103.04 28.1268C103.284 27.4939 103.515 26.8853 103.734 26.301C103.977 25.7168 104.184 25.1934 104.355 24.7308C102.578 27.1165 101.166 29.1614 100.119 30.8655C99.0721 32.5452 98.1227 34.091 97.2707 35.503C97.2464 35.5273 97.222 35.5517 97.1977 35.576C97.1977 35.6004 97.1977 35.6247 97.1977 35.649C97.0516 35.9168 96.8812 36.1359 96.6864 36.3063C96.516 36.4767 96.2604 36.5619 95.9196 36.5619C95.6275 36.5619 95.3719 36.5011 95.1528 36.3794C94.958 36.2576 94.7998 36.1359 94.6781 36.0142C94.605 35.9168 94.532 35.8316 94.459 35.7586C94.4103 35.6856 94.3738 35.6247 94.3494 35.576C94.2277 35.3813 94.0816 35.2109 93.9112 35.0648C93.7652 34.8944 93.6191 34.7362 93.4731 34.5901C93.3513 34.4927 93.2418 34.4075 93.1444 34.3345C93.047 34.2371 92.9497 34.1397 92.8523 34.0424C92.6088 33.8233 92.4019 33.592 92.2315 33.3486C92.0611 33.1051 91.9759 32.8252 91.9759 32.5087C91.9759 32.3626 91.9881 32.1922 92.0124 31.9975C92.0368 31.8027 92.0611 31.5958 92.0855 31.3767C92.1098 31.2793 92.1341 31.1819 92.1585 31.0846C92.1828 30.9629 92.2072 30.8533 92.2315 30.7559C92.2559 30.6829 92.2802 30.6099 92.3045 30.5368C92.3289 30.4638 92.3532 30.3908 92.3776 30.3177C92.7427 29.1249 93.1079 27.9564 93.4731 26.8122C93.8626 25.6437 94.2521 24.4874 94.6416 23.3432C95.4936 20.8358 96.3335 18.4988 97.1611 16.3322C97.9888 14.1656 98.7435 12.3763 99.4251 10.9644C99.5955 10.6236 99.8025 10.3679 100.046 10.1975C100.314 10.0271 100.606 9.94192 100.922 9.94192C101.214 9.94192 101.555 10.0271 101.945 10.1975C102.359 10.3679 103.016 10.6966 103.917 11.1835C103.941 11.1835 103.953 11.1956 103.953 11.22C103.977 11.22 103.99 11.22 103.99 11.22C104.257 11.3904 104.464 11.5851 104.61 11.8042C104.781 11.999 104.866 12.3398 104.866 12.8267C104.866 12.924 104.854 13.0336 104.829 13.1553C104.829 13.277 104.805 13.3988 104.756 13.5205C104.756 13.5935 104.744 13.6665 104.72 13.7396C104.72 13.7883 104.708 13.8491 104.683 13.9221C104.659 13.9952 104.635 14.0682 104.61 14.1412C104.61 14.1899 104.598 14.2386 104.574 14.2873ZM131.291 15.0541C131.291 15.2976 131.194 15.4923 130.999 15.6384C130.829 15.7845 130.634 15.8818 130.415 15.9305C130.342 15.9305 130.269 15.9427 130.196 15.967C130.147 15.967 130.086 15.967 130.013 15.967C129.672 15.967 129.392 15.967 129.173 15.967C128.978 15.9427 128.808 15.9183 128.662 15.894C128.638 15.894 128.613 15.894 128.589 15.894C128.443 15.894 128.285 15.894 128.114 15.894C127.944 15.8697 127.725 15.8575 127.457 15.8575C127.043 15.8575 126.702 15.8697 126.435 15.894C126.167 15.9183 125.911 15.9427 125.668 15.967C125.522 15.9914 125.363 16.0157 125.193 16.0401C125.023 16.0644 124.828 16.0888 124.609 16.1131C124.609 16.1618 124.609 16.2226 124.609 16.2957C124.609 16.3444 124.609 16.393 124.609 16.4417C124.609 17.4155 124.329 18.7544 123.769 20.4585C123.233 22.1382 122.576 23.8788 121.797 25.6802C121.627 26.1184 121.444 26.5566 121.249 26.9948C121.079 27.4087 120.896 27.8225 120.702 28.2363C119.947 29.9404 119.229 31.4984 118.547 32.9104C117.866 34.3223 117.379 35.3204 117.087 35.9047C116.989 36.0994 116.867 36.282 116.721 36.4524C116.6 36.6228 116.368 36.708 116.028 36.708C115.784 36.708 115.589 36.6715 115.443 36.5985C115.297 36.5254 115.163 36.4281 115.042 36.3063C114.944 36.209 114.835 36.0994 114.713 35.9777C114.616 35.856 114.482 35.7343 114.311 35.6125C114.238 35.5638 114.165 35.5152 114.092 35.4665C114.019 35.4178 113.934 35.3691 113.837 35.3204C113.642 35.223 113.484 35.1622 113.362 35.1378C113.265 35.1135 113.155 35.0891 113.033 35.0648C113.033 35.0648 113.021 35.0648 112.997 35.0648C112.875 35.0648 112.741 35.0526 112.595 35.0283C112.449 35.0039 112.242 34.9187 111.974 34.7727C111.731 34.651 111.524 34.4319 111.354 34.1154C111.207 33.7989 111.134 33.4338 111.134 33.0199C111.134 32.8495 111.134 32.6913 111.134 32.5452C111.159 32.3748 111.183 32.2166 111.207 32.0705C111.232 32.0218 111.244 31.9731 111.244 31.9244C111.268 31.8758 111.293 31.8271 111.317 31.7784C113.167 28.2242 114.725 24.9864 115.991 22.0652C117.257 19.1439 118.06 17.2451 118.401 16.3687C118.377 16.247 118.316 16.0766 118.218 15.8575C118.121 15.614 118.024 15.3341 117.926 15.0176C117.853 14.7498 117.768 14.4699 117.671 14.1778C117.598 13.8613 117.537 13.557 117.488 13.2649C117.488 13.1431 117.476 13.0214 117.452 12.8997C117.452 12.778 117.452 12.6563 117.452 12.5345C117.452 12.4859 117.464 12.4128 117.488 12.3155C117.537 12.2181 117.586 12.0964 117.634 11.9503C117.683 11.8286 117.744 11.719 117.817 11.6217C117.89 11.4999 117.963 11.4269 118.036 11.4026C118.109 11.3539 118.206 11.3052 118.328 11.2565C118.474 11.1835 118.632 11.1226 118.803 11.0739C118.949 11.0252 119.119 10.9765 119.314 10.9279C119.509 10.8548 119.703 10.794 119.898 10.7453C120.093 10.6966 120.276 10.6601 120.446 10.6357C120.616 10.587 120.787 10.5505 120.957 10.5262C121.055 10.5018 121.152 10.4897 121.249 10.4897C121.347 10.4653 121.444 10.4531 121.541 10.4531C121.761 10.4045 121.992 10.3679 122.235 10.3436C122.503 10.3193 122.771 10.2949 123.039 10.2706C123.72 10.1732 124.353 10.1002 124.937 10.0515C125.546 10.0028 125.911 9.97844 126.033 9.97844C126.082 9.97844 126.13 9.97844 126.179 9.97844C126.228 9.97844 126.276 9.97844 126.325 9.97844C126.495 9.97844 126.654 9.97844 126.8 9.97844C126.946 9.97844 127.08 9.97844 127.201 9.97844C127.299 9.97844 127.384 9.97844 127.457 9.97844C127.53 9.97844 127.591 9.97844 127.64 9.97844C127.834 10.0028 128.005 10.0271 128.151 10.0515C128.297 10.0515 128.443 10.088 128.589 10.161C128.638 10.1854 128.674 10.2097 128.699 10.2341C128.747 10.2341 128.784 10.2462 128.808 10.2706C128.93 10.3193 129.088 10.4166 129.283 10.5627C129.502 10.7088 129.721 10.867 129.94 11.0374C130.11 11.1591 130.269 11.293 130.415 11.4391C130.561 11.5608 130.695 11.6947 130.816 11.8407C130.841 11.8651 130.853 11.8894 130.853 11.9138C130.877 11.9381 130.902 11.9625 130.926 11.9868C130.926 12.0112 130.926 12.0355 130.926 12.0598C130.95 12.0598 130.975 12.072 130.999 12.0964C131.072 12.1937 131.133 12.4007 131.182 12.7171C131.255 13.0093 131.291 13.7883 131.291 15.0541ZM142.102 34.8457C141.907 35.5273 141.676 36.0507 141.408 36.4159C141.165 36.781 140.909 37.0488 140.641 37.2192C140.495 37.3166 140.337 37.3775 140.166 37.4018C140.02 37.4505 139.874 37.4748 139.728 37.4748C139.436 37.4748 139.168 37.4262 138.925 37.3288C138.682 37.2557 138.462 37.1705 138.268 37.0732C138.219 37.0732 138.182 37.061 138.158 37.0367C138.134 37.0367 138.109 37.0245 138.085 37.0001C137.939 36.9271 137.805 36.8541 137.683 36.781C137.562 36.708 137.452 36.6228 137.355 36.5254C137.233 36.4524 137.111 36.3672 136.99 36.2698C136.868 36.1724 136.734 36.0751 136.588 35.9777C136.515 35.929 136.43 35.8803 136.332 35.8316C136.235 35.7829 136.138 35.7343 136.04 35.6856C136.04 35.6856 136.028 35.6856 136.004 35.6856C136.004 35.6856 135.992 35.6734 135.967 35.649C135.699 35.5273 135.444 35.3813 135.2 35.2109C134.981 35.0161 134.872 34.724 134.872 34.3345C134.872 34.091 134.945 33.7502 135.091 33.312C135.261 32.8738 135.444 32.4113 135.639 31.9244C135.639 31.9001 135.651 31.8879 135.675 31.8879C135.821 31.4984 135.967 31.1211 136.113 30.7559C136.259 30.3908 136.357 30.0743 136.405 29.8065C136.211 29.8065 135.967 29.8309 135.675 29.8796C135.383 29.9039 135.066 29.9404 134.726 29.9891C134.531 30.0378 134.336 30.0865 134.141 30.1352C133.947 30.1839 133.764 30.2325 133.594 30.2812C133.472 30.5247 133.35 30.7924 133.228 31.0846C133.107 31.3767 132.973 31.681 132.827 31.9975C132.778 32.1679 132.717 32.3383 132.644 32.5087C132.571 32.6791 132.51 32.8495 132.462 33.0199C132.267 33.4824 132.072 33.945 131.877 34.4075C131.683 34.87 131.488 35.2839 131.293 35.649C131.269 35.6977 131.244 35.7464 131.22 35.7951C131.196 35.8195 131.171 35.8438 131.147 35.8681C131.025 36.0872 130.867 36.282 130.672 36.4524C130.502 36.5985 130.198 36.6715 129.759 36.6715C129.638 36.6715 129.504 36.6593 129.358 36.635C129.212 36.6106 129.066 36.5863 128.92 36.5619C128.725 36.4889 128.53 36.4159 128.335 36.3428C128.165 36.2698 128.019 36.1846 127.897 36.0872C127.8 36.0142 127.702 35.9412 127.605 35.8681C127.532 35.7708 127.447 35.6734 127.349 35.576C127.252 35.503 127.155 35.4178 127.057 35.3204C126.984 35.1987 126.899 35.0891 126.802 34.9918C126.68 34.8457 126.57 34.7118 126.473 34.5901C126.376 34.444 126.278 34.3101 126.181 34.1884C126.132 34.1154 126.071 34.0424 125.998 33.9693C125.95 33.8963 125.889 33.8111 125.816 33.7137C125.694 33.5433 125.572 33.3486 125.451 33.1295C125.353 32.886 125.305 32.6182 125.305 32.3261C125.305 32.3018 125.305 32.2774 125.305 32.2531C125.305 32.2287 125.305 32.1922 125.305 32.1435C125.329 31.9244 125.378 31.7175 125.451 31.5228C125.548 31.3037 125.645 31.1089 125.743 30.9385C125.816 30.7924 125.889 30.6586 125.962 30.5368C126.035 30.4151 126.096 30.3177 126.144 30.2447C126.169 30.196 126.193 30.1352 126.217 30.0621C126.266 29.9648 126.315 29.8674 126.364 29.77C126.412 29.6726 126.449 29.5753 126.473 29.4779C126.522 29.3805 126.558 29.2831 126.583 29.1858C126.583 29.1127 126.583 29.0519 126.583 29.0032C126.607 28.9545 126.619 28.9058 126.619 28.8571C126.619 28.4433 126.607 28.1025 126.583 27.8347C126.583 27.5425 126.583 27.2991 126.583 27.1044C126.583 26.9096 126.57 26.7514 126.546 26.6296C126.546 26.5079 126.546 26.3984 126.546 26.301C126.546 26.2523 126.546 26.2158 126.546 26.1915C126.57 26.1428 126.595 26.1063 126.619 26.0819C126.692 25.9602 126.79 25.8506 126.911 25.7533C127.057 25.6315 127.216 25.522 127.386 25.4246C127.508 25.3516 127.617 25.2907 127.715 25.242C127.836 25.1934 127.934 25.1568 128.007 25.1325C128.25 25.0595 128.457 24.9256 128.627 24.7308C128.798 24.5361 128.944 24.3292 129.066 24.1101C129.09 24.037 129.127 23.964 129.175 23.891C129.224 23.8179 129.26 23.7449 129.285 23.6719C129.747 22.8685 130.186 22.1017 130.599 21.3714C131.013 20.6411 131.415 19.9473 131.804 19.29C132.243 18.5597 132.681 17.8659 133.119 17.2086C133.557 16.5269 134.032 15.8575 134.543 15.2002C135.103 14.4212 135.724 13.6544 136.405 12.8997C137.111 12.1207 137.89 11.3052 138.742 10.4531C138.84 10.3801 138.949 10.3071 139.071 10.2341C139.217 10.161 139.363 10.1002 139.509 10.0515C139.582 10.0028 139.655 9.97844 139.728 9.97844C139.826 9.9541 139.911 9.94192 139.984 9.94192C140.325 9.94192 140.751 10.1002 141.262 10.4166C141.798 10.7088 142.43 11.0861 143.161 11.5486C143.234 11.5973 143.319 11.646 143.416 11.6947C143.514 11.7434 143.599 11.8042 143.672 11.8773C143.915 12.0233 144.135 12.1937 144.329 12.3885C144.524 12.5589 144.621 12.778 144.621 13.0458C144.621 13.3622 144.561 13.6422 144.439 13.8856C144.317 14.1291 144.171 14.3603 144.001 14.5794C144.098 14.6281 144.22 14.7012 144.366 14.7985C144.512 14.8959 144.658 14.9933 144.804 15.0907C145.047 15.2854 145.267 15.5167 145.461 15.7845C145.656 16.0279 145.766 16.32 145.79 16.6608C145.79 16.6852 145.79 16.7217 145.79 16.7704C145.79 16.8191 145.79 16.8556 145.79 16.8799C145.79 16.9286 145.79 16.9773 145.79 17.026C145.79 17.0503 145.79 17.0868 145.79 17.1355C145.79 17.3059 145.79 17.4764 145.79 17.6468C145.79 17.8172 145.778 17.9632 145.753 18.0849C145.705 19.01 145.546 20.1663 145.279 21.5539C145.035 22.9172 144.755 24.3292 144.439 25.7898C144.341 26.2036 144.244 26.6175 144.147 27.0313C144.049 27.4452 143.94 27.859 143.818 28.2729C143.477 29.7091 143.149 31.0237 142.832 32.2166C142.516 33.3851 142.272 34.2614 142.102 34.8457ZM137.976 24.0735C138.024 23.9762 138.061 23.8788 138.085 23.7814C138.134 23.684 138.17 23.5867 138.195 23.4893C138.438 22.832 138.657 22.1504 138.852 21.4444C139.047 20.7141 139.241 19.8864 139.436 18.9613C139.095 19.3508 138.767 19.7768 138.45 20.2394C138.134 20.6776 137.842 21.1158 137.574 21.5539C137.282 22.0165 137.014 22.4668 136.771 22.905C136.551 23.3432 136.357 23.7692 136.186 24.1831C136.284 24.2074 136.381 24.2318 136.478 24.2561C136.6 24.2805 136.722 24.2926 136.844 24.2926C136.868 24.2926 136.892 24.2926 136.917 24.2926C136.941 24.2926 136.977 24.2926 137.026 24.2926C137.197 24.2683 137.367 24.2439 137.537 24.2196C137.732 24.1709 137.878 24.1222 137.976 24.0735ZM164.351 30.7559C164.327 30.902 164.303 31.0359 164.278 31.1576C164.278 31.255 164.278 31.3645 164.278 31.4862C164.278 31.681 164.303 31.8392 164.351 31.961C164.424 32.0583 164.534 32.107 164.68 32.107C164.729 32.107 164.79 32.1314 164.863 32.18C164.936 32.2044 164.996 32.2653 165.045 32.3626C165.216 32.5574 165.374 32.8495 165.52 33.239C165.666 33.6285 165.739 34.0545 165.739 34.5171C165.739 34.7848 165.702 35.077 165.629 35.3934C165.581 35.6856 165.508 35.9777 165.41 36.2698C165.264 36.708 165.094 37.134 164.899 37.5479C164.704 37.9861 164.497 38.3512 164.278 38.6433C164.205 38.7164 164.132 38.7894 164.059 38.8624C164.011 38.9598 163.95 39.0328 163.877 39.0815C163.365 39.5928 162.879 39.9092 162.416 40.0309C161.953 40.177 161.503 40.25 161.065 40.25C160.87 40.25 160.7 40.1648 160.554 39.9944C160.432 39.824 160.371 39.5562 160.371 39.1911C160.371 39.1667 160.371 39.1424 160.371 39.1181C160.371 39.1181 160.371 39.1059 160.371 39.0815C160.371 39.0572 160.371 39.0328 160.371 39.0085C160.371 38.619 160.274 38.2904 160.079 38.0226C159.909 37.7791 159.714 37.5966 159.495 37.4748C159.446 37.4505 159.397 37.4262 159.349 37.4018C159.3 37.4018 159.251 37.3896 159.203 37.3653C159.13 37.3409 158.947 37.3166 158.655 37.2923C158.363 37.2679 157.985 37.2436 157.523 37.2192C156.452 37.1462 154.991 37.0853 153.141 37.0367C151.291 36.988 149.319 36.9636 147.225 36.9636C147.079 36.9636 146.958 36.988 146.86 37.0367C146.787 37.0853 146.714 37.134 146.641 37.1827C146.617 37.2071 146.58 37.2314 146.532 37.2557C146.507 37.3044 146.483 37.3409 146.459 37.3653C145.972 37.7791 145.594 38.0834 145.327 38.2782C145.083 38.4729 144.852 38.6068 144.633 38.6799C144.535 38.7042 144.426 38.7164 144.304 38.7164C144.207 38.7407 144.097 38.7529 143.976 38.7529C143.635 38.7529 143.367 38.5825 143.172 38.2417C143.002 37.9009 142.917 37.5235 142.917 37.1097C142.917 37.0853 142.917 37.0488 142.917 37.0001C142.917 36.9758 142.917 36.9514 142.917 36.9271C142.941 36.6837 142.99 36.4037 143.063 36.0872C143.136 35.7464 143.282 35.3082 143.501 34.7727C143.55 34.6266 143.61 34.4805 143.683 34.3345C143.756 34.1884 143.829 34.0424 143.903 33.8963C144.17 33.3607 144.499 32.8617 144.888 32.3991C145.278 31.9366 145.728 31.681 146.24 31.6323C146.288 31.6323 146.337 31.6323 146.386 31.6323C146.434 31.608 146.483 31.5958 146.532 31.5958C146.726 31.5471 146.872 31.4984 146.97 31.4497C147.067 31.3767 147.152 31.2672 147.225 31.1211C147.25 31.0967 147.262 31.0724 147.262 31.0481C147.773 29.7822 148.333 28.4311 148.942 26.9948C149.575 25.5342 150.256 24.0735 150.987 22.6129C152.131 20.3246 153.372 18.1093 154.711 15.967C156.074 13.8248 157.499 11.9868 158.984 10.4531C159.13 10.2827 159.276 10.161 159.422 10.088C159.592 10.015 159.799 9.97844 160.042 9.97844C160.091 9.97844 160.14 9.97844 160.189 9.97844C160.262 9.97844 160.322 9.97844 160.371 9.97844C160.736 10.0271 161.162 10.1854 161.649 10.4531C162.16 10.7209 163.025 11.1956 164.242 11.8773C164.388 11.9746 164.51 12.1085 164.607 12.2789C164.729 12.425 164.814 12.5954 164.863 12.7902C164.887 12.8145 164.899 12.851 164.899 12.8997C164.899 12.9484 164.899 12.9971 164.899 13.0458C164.899 13.1675 164.887 13.277 164.863 13.3744C164.863 13.4718 164.838 13.557 164.79 13.63C164.741 13.7274 164.668 13.8369 164.57 13.9587C164.473 14.056 164.339 14.1899 164.169 14.3603C165.094 14.8716 165.666 15.3341 165.885 15.7479C166.128 16.1618 166.238 16.5756 166.214 16.9895C166.214 17.1112 166.214 17.2329 166.214 17.3546C166.214 17.452 166.214 17.5616 166.214 17.6833C166.214 17.8537 166.214 18.0363 166.214 18.231C166.214 18.4014 166.214 18.5718 166.214 18.7422C166.165 20.2029 166.043 21.6392 165.849 23.0511C165.654 24.463 165.435 25.7411 165.191 26.8853C165.045 27.7373 164.887 28.5041 164.717 29.1858C164.57 29.843 164.449 30.3664 164.351 30.7559ZM160.006 19.0344C159.738 19.3508 159.373 19.8986 158.911 20.6776C158.472 21.4566 158.01 22.3573 157.523 23.3797C157.304 23.8179 157.085 24.2683 156.866 24.7308C156.671 25.1934 156.476 25.6559 156.281 26.1184C155.941 26.9705 155.624 27.8103 155.332 28.638C155.064 29.4657 154.869 30.2204 154.748 30.902C154.869 30.8777 154.991 30.8655 155.113 30.8655C155.259 30.8655 155.405 30.8655 155.551 30.8655C155.697 30.8655 155.855 30.8655 156.026 30.8655C156.196 30.8655 156.367 30.8777 156.537 30.902C156.683 30.902 156.841 30.9142 157.012 30.9385C157.182 30.9385 157.34 30.9385 157.486 30.9385C157.632 30.5734 157.779 30.0986 157.925 29.5144C158.095 28.9301 158.265 28.2972 158.436 27.6156C158.533 27.2017 158.631 26.7635 158.728 26.301C158.825 25.8385 158.923 25.3759 159.02 24.9134C159.263 23.7692 159.47 22.6616 159.641 21.5905C159.836 20.495 159.957 19.643 160.006 19.0344ZM179.44 14.2873C179.196 14.8716 178.953 15.4193 178.709 15.9305C178.49 16.4417 178.283 16.9408 178.089 17.4277C177.797 18.1336 177.504 18.8518 177.212 19.5821C176.945 20.3124 176.677 21.1401 176.409 22.0652C177.115 20.921 178.077 19.5091 179.294 17.8293C180.535 16.1496 181.85 14.4212 183.237 12.6441C183.335 12.498 183.432 12.352 183.53 12.2059C183.651 12.0598 183.761 11.9259 183.858 11.8042C183.98 11.6338 184.102 11.4756 184.223 11.3295C184.369 11.1591 184.503 10.9887 184.625 10.8183C184.649 10.7696 184.674 10.7209 184.698 10.6722C184.747 10.6236 184.795 10.5749 184.844 10.5262C184.966 10.4288 185.088 10.3314 185.209 10.2341C185.355 10.1367 185.514 10.088 185.684 10.088C185.806 10.088 185.915 10.1123 186.013 10.161C186.134 10.1854 186.244 10.2341 186.341 10.3071C186.487 10.3801 186.633 10.4897 186.779 10.6357C186.926 10.7574 187.096 10.9035 187.291 11.0739C188.264 11.9503 188.897 12.5954 189.19 13.0093C189.506 13.3988 189.689 13.7517 189.737 14.0682C189.737 14.0926 189.737 14.1291 189.737 14.1778C189.737 14.2264 189.737 14.2751 189.737 14.3238C189.737 14.4212 189.713 14.5307 189.664 14.6525C189.64 14.7742 189.603 14.8959 189.555 15.0176C189.53 15.0663 189.506 15.115 189.482 15.1637C189.457 15.2124 189.433 15.2611 189.409 15.3097C189.384 15.3828 189.348 15.4558 189.299 15.5288C189.275 15.5775 189.25 15.6384 189.226 15.7114C188.861 16.5148 188.459 17.4033 188.021 18.3771C187.583 19.3265 187.132 20.3489 186.67 21.4444C185.988 23.0268 185.331 24.7187 184.698 26.5201C184.089 28.2972 183.603 30.0986 183.237 31.9244C183.164 32.2653 183.091 32.6182 183.018 32.9834C182.97 33.3242 182.921 33.665 182.872 34.0058C182.775 34.8092 182.544 35.4665 182.178 35.9777C181.813 36.4646 181.241 36.708 180.462 36.708C180.146 36.708 179.854 36.6837 179.586 36.635C179.342 36.5619 179.099 36.4646 178.856 36.3428C178.734 36.2698 178.612 36.209 178.49 36.1603C178.369 36.0872 178.235 36.0264 178.089 35.9777C178.04 35.929 177.979 35.8925 177.906 35.8681C177.857 35.8438 177.809 35.8195 177.76 35.7951C177.249 35.576 176.859 35.2961 176.592 34.9552C176.324 34.6144 176.19 34.2128 176.19 33.7502C176.19 33.2634 176.336 32.5574 176.628 31.6323C176.945 30.7072 177.298 29.7335 177.687 28.711C177.711 28.6137 177.748 28.5163 177.797 28.4189C177.845 28.3215 177.882 28.2242 177.906 28.1268C178.15 27.4939 178.381 26.8853 178.6 26.301C178.843 25.7168 179.05 25.1934 179.221 24.7308C177.444 27.1165 176.032 29.1614 174.985 30.8655C173.938 32.5452 172.989 34.091 172.137 35.503C172.112 35.5273 172.088 35.5517 172.064 35.576C172.064 35.6004 172.064 35.6247 172.064 35.649C171.918 35.9168 171.747 36.1359 171.552 36.3063C171.382 36.4767 171.126 36.5619 170.786 36.5619C170.493 36.5619 170.238 36.5011 170.019 36.3794C169.824 36.2576 169.666 36.1359 169.544 36.0142C169.471 35.9168 169.398 35.8316 169.325 35.7586C169.276 35.6856 169.24 35.6247 169.215 35.576C169.094 35.3813 168.948 35.2109 168.777 35.0648C168.631 34.8944 168.485 34.7362 168.339 34.5901C168.217 34.4927 168.108 34.4075 168.01 34.3345C167.913 34.2371 167.816 34.1397 167.718 34.0424C167.475 33.8233 167.268 33.592 167.097 33.3486C166.927 33.1051 166.842 32.8252 166.842 32.5087C166.842 32.3626 166.854 32.1922 166.878 31.9975C166.903 31.8027 166.927 31.5958 166.951 31.3767C166.976 31.2793 167 31.1819 167.024 31.0846C167.049 30.9629 167.073 30.8533 167.097 30.7559C167.122 30.6829 167.146 30.6099 167.17 30.5368C167.195 30.4638 167.219 30.3908 167.244 30.3177C167.609 29.1249 167.974 27.9564 168.339 26.8122C168.729 25.6437 169.118 24.4874 169.508 23.3432C170.36 20.8358 171.199 18.4988 172.027 16.3322C172.855 14.1656 173.609 12.3763 174.291 10.9644C174.461 10.6236 174.668 10.3679 174.912 10.1975C175.18 10.0271 175.472 9.94192 175.788 9.94192C176.08 9.94192 176.421 10.0271 176.811 10.1975C177.225 10.3679 177.882 10.6966 178.783 11.1835C178.807 11.1835 178.819 11.1956 178.819 11.22C178.843 11.22 178.856 11.22 178.856 11.22C179.123 11.3904 179.33 11.5851 179.476 11.8042C179.647 11.999 179.732 12.3398 179.732 12.8267C179.732 12.924 179.72 13.0336 179.695 13.1553C179.695 13.277 179.671 13.3988 179.622 13.5205C179.622 13.5935 179.61 13.6665 179.586 13.7396C179.586 13.7883 179.574 13.8491 179.549 13.9221C179.525 13.9952 179.501 14.0682 179.476 14.1412C179.476 14.1899 179.464 14.2386 179.44 14.2873ZM207.362 18.0484C207.362 18.8274 207.204 19.5943 206.887 20.3489C206.595 21.0792 206.279 21.7365 205.938 22.3208C205.792 22.5399 205.646 22.759 205.5 22.9781C205.354 23.1972 205.22 23.3919 205.098 23.5623C204.879 23.8788 204.538 24.2926 204.076 24.8039C203.613 25.2907 203.102 25.802 202.542 26.3375C202.372 26.5079 202.189 26.6783 201.994 26.8487C201.824 26.9948 201.653 27.153 201.483 27.3234C200.728 27.9807 200.01 28.5528 199.329 29.0397C198.647 29.5266 198.16 29.77 197.868 29.77C197.454 29.77 197.065 29.6118 196.7 29.2953C196.359 28.9545 196.054 28.5772 195.787 28.1633C195.592 27.8468 195.421 27.5547 195.275 27.2869C195.154 26.9948 195.068 26.7879 195.02 26.6662C194.557 27.5425 194.156 28.4433 193.815 29.3683C193.498 30.2691 193.182 31.1819 192.865 32.107C192.841 32.18 192.817 32.2531 192.792 32.3261C192.768 32.3748 192.744 32.4357 192.719 32.5087C192.525 33.0929 192.318 33.6894 192.099 34.298C191.904 34.8822 191.685 35.4665 191.441 36.0507C191.393 36.1238 191.356 36.1968 191.332 36.2698C191.307 36.3185 191.271 36.3794 191.222 36.4524C191.125 36.5985 191.015 36.7202 190.894 36.8176C190.796 36.9149 190.65 36.9636 190.455 36.9636C190.261 36.9636 190.115 36.9514 190.017 36.9271C189.944 36.9028 189.871 36.8662 189.798 36.8176C189.749 36.7932 189.688 36.7689 189.615 36.7445C189.567 36.7202 189.506 36.6837 189.433 36.635C189.287 36.5376 189.177 36.4524 189.104 36.3794C189.031 36.282 188.97 36.1968 188.922 36.1238C188.922 36.1238 188.909 36.1238 188.885 36.1238C188.885 36.0994 188.885 36.0872 188.885 36.0872C188.812 35.9899 188.727 35.8803 188.63 35.7586C188.532 35.6369 188.374 35.503 188.155 35.3569C187.96 35.2352 187.79 35.1378 187.644 35.0648C187.522 34.9918 187.4 34.9309 187.278 34.8822C187.254 34.8822 187.242 34.8822 187.242 34.8822C187.242 34.8579 187.242 34.8457 187.242 34.8457C187.12 34.797 186.986 34.7362 186.84 34.6631C186.694 34.5901 186.524 34.4805 186.329 34.3345C186.159 34.2128 186.025 34.0789 185.927 33.9328C185.83 33.7624 185.769 33.6042 185.745 33.4581C185.72 33.3364 185.696 33.2268 185.672 33.1295C185.672 33.0321 185.672 32.9347 185.672 32.8373C185.672 32.6669 185.672 32.4965 185.672 32.3261C185.696 32.1314 185.745 31.9488 185.818 31.7784C185.94 31.4862 186.317 30.5247 186.95 28.8936C187.607 27.2626 188.35 25.4977 189.177 23.5988C189.323 23.258 189.469 22.9172 189.615 22.5764C189.786 22.2112 189.956 21.8582 190.127 21.5174C190.638 20.3733 191.149 19.3265 191.66 18.3771C192.172 17.4033 192.622 16.6487 193.011 16.1131C192.963 16.0401 192.902 15.9305 192.829 15.7845C192.756 15.614 192.671 15.4315 192.573 15.2367C192.549 15.115 192.512 15.0054 192.464 14.9081C192.415 14.7864 192.366 14.6768 192.318 14.5794C192.245 14.336 192.184 14.1047 192.135 13.8856C192.086 13.6665 192.062 13.484 192.062 13.3379C192.062 13.2892 192.086 13.1918 192.135 13.0458C192.208 12.8754 192.305 12.705 192.427 12.5345C192.5 12.4128 192.598 12.3033 192.719 12.2059C192.841 12.0842 192.975 11.9868 193.121 11.9138C193.827 11.5486 194.728 11.22 195.823 10.9279C196.943 10.6114 198.124 10.4531 199.365 10.4531C200.728 10.4531 201.909 10.6844 202.907 11.1469C203.93 11.5851 204.818 12.2911 205.573 13.2649C205.865 13.6544 206.108 14.0074 206.303 14.3238C206.522 14.6403 206.705 14.9568 206.851 15.2732C207.021 15.6871 207.143 16.1131 207.216 16.5513C207.313 16.9895 207.362 17.4885 207.362 18.0484ZM201.081 18.3771C201.154 18.231 201.203 18.1093 201.227 18.0119C201.276 17.8902 201.301 17.7807 201.301 17.6833C201.301 17.5616 201.264 17.452 201.191 17.3546C201.118 17.2573 201.008 17.1842 200.862 17.1355C200.789 17.0868 200.704 17.0625 200.607 17.0625C200.534 17.0625 200.448 17.0625 200.351 17.0625C200.302 17.0625 200.242 17.0625 200.169 17.0625C200.12 17.0625 200.071 17.0747 200.022 17.099C199.852 17.1234 199.682 17.1599 199.511 17.2086C199.365 17.2573 199.231 17.3181 199.11 17.3911C198.963 17.5859 198.757 17.9632 198.489 18.5231C198.221 19.083 197.941 19.7038 197.649 20.3854C197.625 20.4585 197.6 20.5315 197.576 20.6045C197.552 20.6776 197.515 20.7506 197.466 20.8236C197.393 21.0184 197.32 21.2131 197.247 21.4079C197.174 21.5783 197.101 21.7487 197.028 21.9191C197.515 21.8461 197.99 21.6392 198.452 21.2983C198.939 20.9332 199.377 20.5437 199.767 20.1298C200.108 19.7403 200.4 19.3752 200.643 19.0344C200.887 18.6935 201.033 18.4745 201.081 18.3771Z" fill="url(#paint0_linear_487_66557)"/>
</g>
<path d="M14.5748 48.8406L9.35629 49.5197C9.35629 46.8739 7.66824 40.7595 6.82422 38.0331C7.5859 37.6098 9.67743 36.598 11.9501 35.9365C13.3335 38.913 14.2763 45.7794 14.5748 48.8406Z" fill="white"/>
<path d="M36.962 35.9365C35.628 38.5114 34.677 45.6121 34.3682 48.8406C35.3975 48.9784 37.8575 49.3662 39.4632 49.815C39.7102 46.0353 41.2542 40.3855 41.9952 38.0331C41.3777 37.6295 39.5064 36.6452 36.962 35.9365Z" fill="white"/>
<path d="M19.1133 38.092L20.3484 35.021H28.4696L29.7665 37.6195L28.9328 38.9483C28.0476 39.3617 25.9066 40.1885 24.4244 40.1885C22.9423 40.1885 21.0895 39.5586 20.3484 39.2436L19.1133 38.092Z" fill="#FFDF93"/>
<path d="M14.6679 18.6918C14.4456 18.9044 13.5666 18.7804 13.1548 18.6918C11.0242 19.9908 12.0741 21.3789 13.1548 23.5345C14.0194 25.2589 14.9355 25.8672 15.2855 25.9558C15.4913 28.2295 17.5582 32.7769 24.1786 32.7769C30.799 32.7769 32.9688 28.2295 33.2261 25.9558C33.6172 25.8672 34.523 25.6605 35.0171 25.5424C35.6346 25.3948 36.9933 22.9439 36.9316 20.6997C36.8822 18.9044 35.2229 18.613 34.3995 18.6918C34.3995 18.8886 34.1648 18.7745 33.2261 16.7429C32.0527 14.2034 26.8959 14.3806 24.1786 14.3806C21.4612 14.3806 18.0028 14.7054 16.7368 15.5027C15.4707 16.3 14.9458 18.426 14.6679 18.6918Z" fill="#FFDF93"/>
<path d="M24.3636 28.0522C22.2391 28.0522 21.111 26.9104 20.8125 26.3395L24.3636 25.6309L28.069 26.3395C27.7191 26.9104 26.488 28.0522 24.3636 28.0522Z" fill="white"/>
<path d="M16.5507 15.4949L14.4201 18.6544H14.2965C14.0495 18.4576 13.4381 17.8099 12.9688 16.7941C14.3274 15.5421 15.9228 15.4063 16.5507 15.4949Z" fill="white"/>
<path d="M34.584 18.6544C34.2628 18.0402 33.0297 16.2921 32.4533 15.4949C34.3307 15.613 35.5206 16.3118 35.8809 16.6465L35.0181 18.5618C35.0904 18.5472 35.0614 18.5551 35.0163 18.5658L35.0181 18.5618C34.9584 18.5738 34.8297 18.601 34.584 18.6544Z" fill="white"/>
<path d="M24.3944 40.1296C22.764 40.1296 20.9977 39.6177 20.3184 39.3618C21.5844 41.0154 24.3944 47.246 24.3944 47.0983C24.3944 46.9802 27.1735 41.8914 28.563 39.3618C27.8528 39.6177 26.0248 40.1296 24.3944 40.1296Z" fill="#FDB813"/>
<path d="M9.13956 51.9704C3.8531 48.8049 1.46101 43.2102 0.925781 40.8085V39.9227C2.32562 39.3912 5.32293 38.3281 6.11343 38.3281C7.10155 38.3281 6.73101 38.4462 7.41034 39.9227C8.83077 45.4741 9.5101 51.7341 9.13956 51.9704Z" fill="#FF2F35"/>
<path d="M39.7101 51.9704C44.9965 48.8049 47.3886 43.2102 47.9238 40.8085V39.9227C46.524 39.3912 43.5267 38.3281 42.7362 38.3281C41.7481 38.3281 42.1186 38.4462 41.4393 39.9227C40.0188 45.4741 39.3395 51.7341 39.7101 51.9704Z" fill="#FF2F35"/>
<path d="M18.59 37.3244L20.134 35.2574V34.7849C18.9606 33.8597 16.4409 32.021 15.7492 32.0683C14.8846 32.1273 12.229 35.2574 12.1055 36.1432C13.8964 39.8048 14.6993 46.5964 14.5758 51.321C17.886 51.0375 22.5014 50.9273 24.3953 50.9076V48.5453V47.0098L20.134 39.037L18.59 37.3244Z" fill="#FF2F35"/>
<path d="M30.3221 37.3244L28.7781 35.2574V34.7849C29.9515 33.8597 32.4712 32.021 33.1629 32.0683C34.0275 32.1273 36.6831 35.2574 36.8066 36.1432C35.0157 39.8048 34.2128 46.5964 34.3363 51.321C31.0261 51.0375 26.4108 50.9273 24.5169 50.9076V48.5453V47.0098L28.7781 39.037L30.3221 37.3244Z" fill="#FF2F35"/>
<path d="M24.3325 14.4098C17.218 14.4098 13.2984 16.1815 12.228 17.0674C11.8574 16.3587 11.7339 14.1145 12.5985 13.4058C12.4132 7.3229 15.6246 4.90152 18.0332 3.12982C17.9714 2.53926 20.3182 1.47621 20.6888 1.47621C21.0593 1.47621 22.1709 1.47621 22.4797 0.944689C22.7885 0.413168 25.3823 0.47223 26.1852 0.944689C26.988 1.41715 27.2968 1.83055 28.0379 1.47621C28.779 1.12187 29.2113 1.65338 30.817 3.12982C36.0047 6.10631 36.6017 11.2207 36.2517 13.4058L36.931 14.1145V16.7721C35.6959 15.9846 31.447 14.4098 24.3325 14.4098Z" fill="#FDB813"/>
<path d="M40.3544 52.0485C44.4051 49.1661 45.6097 48.0077 47.7739 43.0339C47.0842 47.6899 45.3771 50.2609 40.3544 52.0485Z" fill="#0F0F0F"/>
<path d="M8.3459 52.0485C4.29512 49.1661 3.0906 48.0077 0.926361 43.0339C1.61602 47.6899 3.32316 50.2609 8.3459 52.0485Z" fill="#0F0F0F"/>
<path fill-rule="evenodd" clip-rule="evenodd" d="M48.6029 41.222C48.0162 41.8569 46.8737 43.7615 46.8737 43.7615C46.9663 43.3186 48.0082 41.3247 47.7383 40.6905C47.4684 40.0564 46.6267 40.5133 46.6267 40.5133C46.6267 40.5133 44.241 39.3463 43.7234 39.0369C43.2059 38.7276 42.0794 38.7557 41.6854 39.9818C40.4892 44.0721 39.6474 52.0295 39.6474 52.0295L38.7828 51.9114L39.0298 49.9625L34.7681 49.431L34.6446 51.498C34.6446 51.498 34.4824 51.4827 33.8418 51.439C33.726 46.6411 35.131 39.9664 36.4356 35.9659C34.0655 38.7866 31.6181 39.5684 31.6181 39.5684C31.6181 39.5684 30.6839 37.2497 29.4566 38.9779C28.2293 40.706 24.8243 47.3049 24.8243 47.3049L24.4538 51.2027L24.0832 47.3049C24.0832 47.3049 20.6788 40.706 19.4514 38.9779C18.224 37.2497 17.2899 39.5684 17.2899 39.5684C17.2899 39.5684 14.8427 38.7866 12.4728 35.9659C13.7775 39.9664 15.1823 46.6411 15.0666 51.439C14.4259 51.4827 14.2638 51.498 14.2638 51.498L14.1402 49.431L9.87896 49.9625L10.126 51.9114L9.26138 52.0295C9.26138 52.0295 8.41987 44.0721 7.22338 39.9818C6.82973 38.7557 5.70253 38.7276 5.18537 39.0369C4.66821 39.3463 2.28276 40.5133 2.28276 40.5133C2.28276 40.5133 1.44125 40.0564 1.17112 40.6905C0.90099 41.3247 1.94309 43.3186 2.03573 43.7615C2.03573 43.7615 0.893209 41.8569 0.30651 41.222C-0.280188 40.5872 -0.0949148 39.7604 1.47991 39.3322C3.05473 38.904 12.164 35.021 12.164 35.021L15.3136 31.4185C15.4895 31.3576 15.6791 31.3418 15.8633 31.3729C16.0476 31.404 16.2201 31.4808 16.3635 31.5957C15.221 29.8683 14.9431 26.2215 14.9431 26.2215C14.9431 26.2215 13.8623 26.3543 13.1521 24.9222C12.4419 23.4901 11.2067 21.7183 11.2994 20.7291C11.392 19.7399 11.7317 19.0017 12.4728 18.544C10.9597 18.1158 10.9906 18.2635 10.8671 18.0716C10.7436 17.8796 10.5583 17.5253 10.5583 17.1857C10.5583 16.8461 11.3611 16.5951 11.3611 16.5951C11.3611 16.5951 11.3303 14.3952 11.3611 13.9375C11.392 13.4798 12.1022 13.2879 12.1022 13.2879C12.1022 13.2879 11.4538 6.89495 17.4752 2.89381C17.4443 2.55423 17.4752 2.37706 17.7222 2.24418C17.9692 2.1113 19.5749 1.10733 20.069 0.944918C20.563 0.78251 21.1189 1.12209 21.1189 1.12209L21.9835 0.88586L22.2305 0.413401C22.2305 0.413401 22.2923 0 24.4538 0C26.6153 0 26.6771 0.413401 26.6771 0.413401L26.9241 0.88586L27.7887 1.12209C27.7887 1.12209 28.3445 0.78251 28.8386 0.944918C29.3326 1.10733 30.9383 2.1113 31.1854 2.24418C31.4324 2.37706 31.4633 2.55423 31.4324 2.89381C37.4545 6.89495 36.806 13.2879 36.806 13.2879C36.806 13.2879 37.5162 13.4798 37.5471 13.9375C37.578 14.3952 37.5471 16.5951 37.5471 16.5951C37.5471 16.5951 38.3499 16.8461 38.3499 17.1857C38.3499 17.5253 38.1647 17.8796 38.0412 18.0716C37.9176 18.2635 37.9485 18.1158 36.4355 18.544C37.1765 19.0017 37.5162 19.7399 37.6089 20.7291C37.7015 21.7183 36.4663 23.4901 35.7558 24.9222C35.0452 26.3543 33.9648 26.2215 33.9648 26.2215C33.9648 26.2215 33.6869 29.8683 32.5444 31.5957C32.6878 31.4808 32.8603 31.404 33.0445 31.3729C33.2288 31.3418 33.4183 31.3576 33.5942 31.4185L36.7444 35.021C36.7444 35.021 45.8542 38.904 47.4291 39.3322C49.0039 39.7604 49.1896 40.5872 48.6029 41.222ZM12.9051 46.1238C12.9668 46.7043 13.0904 47.5412 13.0904 47.5412C13.0904 47.5412 13.1316 47.925 13.4609 47.9546C13.6703 47.9749 13.8771 48.0144 14.0785 48.0727L13.8315 45.297L13.1521 45.5332C13.1521 45.5332 12.8433 45.5433 12.9051 46.1238ZM9.69368 48.7814C9.69368 48.7814 10.0848 48.5552 10.373 48.368C10.6612 48.1808 10.5583 47.8365 10.5583 47.8365C10.5583 47.8365 10.4553 46.6848 10.373 46.36C10.2907 46.0352 9.94071 46.0647 9.94071 46.0647H9.32314L9.69368 48.7814ZM9.01435 44.5883L13.5844 43.8796L13.4609 42.8756L8.89083 43.8206L9.01435 44.5883ZM11.6699 36.3793C9.57017 37.216 7.47041 38.092 7.47041 38.092C7.47041 38.092 8.60261 42.1374 8.70556 42.9938C11.2376 42.5902 13.2756 42.167 13.2756 42.167C13.2756 42.167 12.2669 37.7278 11.6699 36.3793ZM24.4538 46.3512C24.8587 45.519 27.1552 40.8352 28.036 39.8047C26.6083 40.4085 25.0676 40.5065 24.4541 40.5139C23.8403 40.5065 22.2997 40.4085 20.8721 39.8047C21.7526 40.835 24.0488 45.519 24.4538 46.3512ZM19.6984 37.8558C19.7992 38.4436 21.578 39.644 24.4538 39.7957C27.3298 39.644 29.1087 38.4436 29.2095 37.8558C29.3124 37.2553 28.6537 35.7002 28.1596 35.3163C27.238 35.7176 25.2246 35.7792 24.4541 35.7878C23.6834 35.7792 21.6702 35.7176 20.7487 35.3163C20.2543 35.7002 19.5955 37.2553 19.6984 37.8558ZM26.2448 28.4656C25.6894 28.6113 24.9874 28.6687 24.4538 28.6907C23.9201 28.6687 23.2181 28.6113 22.6628 28.4656C21.6231 28.1929 20.2647 27.1045 20.1307 26.2805C19.8528 26.3424 19.6367 26.0443 19.6367 26.0443C19.6367 26.0443 19.0089 31.5535 22.2305 32.0681C23.126 32.2482 23.2702 31.8487 23.3421 31.7138C23.4141 31.5789 23.3421 30.6508 23.3421 30.6508L22.1687 29.4106C22.1687 29.4106 23.5722 29.8257 24.4538 29.8896C25.3354 29.8257 26.7388 29.4106 26.7388 29.4106L25.5654 30.6508C25.5654 30.6508 25.4935 31.5789 25.5654 31.7138C25.6373 31.8487 25.7816 32.2482 26.6771 32.0681C29.8989 31.5535 29.2709 26.0443 29.2709 26.0443C29.2709 26.0443 29.0547 26.3424 28.7768 26.2805C28.6432 27.1045 27.2847 28.1929 26.2448 28.4656ZM27.4799 26.5758C25.6581 27.0258 24.4538 26.2215 24.4538 26.2215C24.4538 26.2215 23.2495 27.0258 21.4277 26.5758C22.42 27.5353 23.866 27.66 24.4538 27.6869C25.0416 27.66 26.4877 27.5353 27.4799 26.5758ZM15.8077 32.4815L13.1521 35.3754C13.1521 35.3754 14.5931 37.4719 16.9811 38.6826C17.5163 37.0585 19.7602 35.021 19.7602 35.021C17.084 33.9974 15.8077 32.4815 15.8077 32.4815ZM15.8695 15.8274C14.1197 16.3983 13.5227 16.9495 13.5227 16.9495C13.7234 17.4136 13.9502 17.867 14.202 18.3078C14.3564 17.1238 15.8695 15.8274 15.8695 15.8274ZM12.3493 20.7291C12.4623 21.2438 13.9241 24.6241 14.1402 24.8631C14.3564 25.1022 14.8196 25.2765 14.8196 25.2765V24.2726C14.8196 24.2726 14.1507 23.5414 14.2638 23.0914C14.3768 22.6415 14.5417 21.8878 14.5108 21.7331C14.4799 21.5784 13.8932 20.3748 13.8932 20.3748C13.8932 20.3748 13.6566 19.8601 13.0286 20.3748C13.6153 19.6886 13.8006 19.742 13.8932 19.7842C13.9858 19.8264 14.6343 20.2567 14.6343 20.2567C14.6343 20.2567 14.4799 18.9349 13.6462 18.9574C12.8124 18.9799 12.2362 20.2144 12.3493 20.7291ZM13.0904 13.0517C14.6034 12.4977 17.5265 11.6175 20.2543 11.3981C20.6146 6.45408 18.2162 3.6025 18.2162 3.6025C14.2432 6.24041 13.3476 9.39295 13.0904 13.0517ZM28.7154 1.88984C28.561 1.79841 28.4581 1.9222 28.1596 2.24418C27.0374 3.45202 26.1215 7.32311 26.1215 7.32311V1.53549C26.1215 1.011 25.5657 1.06303 25.5657 1.06303L24.4541 0.961809L23.3421 1.06303C23.3421 1.06303 22.7863 1.011 22.7863 1.53549V7.32311C22.7863 7.32311 21.8704 3.45202 20.7483 2.24418C20.4497 1.9222 20.3469 1.79841 20.1925 1.88984C20.0381 1.98126 18.525 2.83475 18.525 2.83475C18.525 2.83475 21.3146 5.05643 21.0571 11.28C22.1839 11.1475 23.3186 11.087 24.4538 11.0988C25.589 11.087 26.7237 11.1475 27.8505 11.28C27.593 5.05643 30.3825 2.83475 30.3825 2.83475C30.3825 2.83475 28.87 1.98126 28.7154 1.88984ZM30.6916 3.6025C30.6916 3.6025 28.2931 6.45408 28.6536 11.3981C31.3816 11.6175 34.3048 12.4977 35.8181 13.0517C35.5608 9.39295 34.6652 6.24041 30.6918 3.6025H30.6916ZM36.4973 16.0636V14.2919C31.6345 11.9422 25.5797 11.8617 24.4538 11.8682C23.3279 11.8617 17.2736 11.9422 12.411 14.2919V16.0636C12.411 16.0636 16.7916 13.8371 24.4538 13.8194C32.1166 13.8371 36.4975 16.0636 36.4975 16.0636H36.4973ZM34.0887 25.2765C34.0887 25.2765 34.5519 25.1022 34.7681 24.8631C34.9842 24.6241 36.4461 21.2438 36.5595 20.7291C36.6729 20.2144 36.0963 18.9799 35.2622 18.9574C34.4281 18.9349 34.2741 20.2567 34.2741 20.2567C34.2741 20.2567 34.9225 19.8264 35.0152 19.7842C35.1078 19.742 35.2931 19.6886 35.8798 20.3748C35.2517 19.8601 35.0152 20.3748 35.0152 20.3748C35.0152 20.3748 34.4285 21.5784 34.3976 21.7331C34.3667 21.8878 34.5315 22.6415 34.6446 23.0914C34.7577 23.5414 34.0888 24.2726 34.0888 24.2726L34.0887 25.2765ZM34.7063 18.3078C34.9581 17.867 35.1848 17.4136 35.3856 16.9495C35.3856 16.9495 34.7886 16.3983 33.0388 15.8274C33.0388 15.8274 34.5518 17.1238 34.7063 18.3078ZM33.0388 24.5679C33.255 22.5431 33.3578 20.2144 33.1006 18.3078C32.8434 16.4011 32.102 15.7064 31.1861 15.473C30.3339 15.2559 25.8022 14.8441 24.454 14.8217C23.1058 14.8441 18.5746 15.2559 17.7224 15.473C16.8064 15.7064 16.0651 16.4011 15.8079 18.3078C15.5507 20.2144 15.6535 22.5431 15.8696 24.5679C16.0858 26.5926 16.7651 28.3898 19.2663 30.8279C19.0297 30.5298 18.1031 26.3621 18.5252 24.6269C18.7414 25.0769 19.8323 25.0235 20.5015 24.8631C21.1706 24.7028 22.035 24.5904 21.9837 24.3316C21.9741 24.2133 21.9171 24.1031 21.8246 24.024C21.6826 23.8217 21.4356 23.415 21.4284 23.0337C21.4672 23.0324 21.4894 23.0324 21.4894 23.0324C21.4894 23.0324 21.582 23.5077 22.354 23.9182C23.0142 24.2023 23.7299 24.3491 24.4538 24.3491C25.1777 24.3491 25.8934 24.2023 26.5535 23.9182C27.3255 23.5077 27.4181 23.0324 27.4181 23.0324C27.4181 23.0324 27.4403 23.0324 27.4794 23.0337C27.472 23.415 27.2251 23.8217 27.0831 24.024C26.9907 24.1032 26.9337 24.2133 26.9241 24.3316C26.8728 24.5904 27.7372 24.7028 28.4063 24.8631C29.0754 25.0235 30.1664 25.0769 30.3825 24.6269C30.8046 26.3621 29.878 30.5298 29.6414 30.8279C32.1434 28.3898 32.8225 26.5926 33.0388 24.5679H33.0388ZM33.1006 32.4815C33.1006 32.4815 31.8242 33.9974 29.1481 35.021C29.1481 35.021 31.3921 37.0585 31.9272 38.6826C34.3153 37.4719 35.7562 35.3754 35.7562 35.3754L33.1006 32.4815ZM38.5358 48.368C38.8242 48.5552 39.2152 48.7814 39.2152 48.7814L39.5857 46.0647H38.9681C38.9681 46.0647 38.618 46.0352 38.5358 46.36C38.4537 46.6848 38.3506 47.8365 38.3506 47.8365C38.3506 47.8365 38.2474 48.1808 38.5358 48.368ZM34.8299 48.0727C35.0313 48.0144 35.2382 47.9749 35.4475 47.9546C35.7769 47.925 35.8181 47.5412 35.8181 47.5412C35.8181 47.5412 35.9416 46.7043 36.0033 46.1238C36.0651 45.5433 35.7563 45.5332 35.7563 45.5332L35.077 45.297L34.8299 48.0727ZM35.324 43.8796L39.8944 44.5883L40.018 43.8206L35.4475 42.8756L35.324 43.8796ZM37.2389 36.3793C36.6417 37.7278 35.6328 42.167 35.6328 42.167C35.6328 42.167 37.6712 42.5902 40.2032 42.9938C40.3064 42.1374 41.4384 38.092 41.4384 38.092C41.4384 38.092 39.3386 37.216 37.2389 36.3793ZM31.433 20.4929C29.4691 20.3092 27.9309 20.4846 27.7275 20.552C27.5241 20.6193 26.4923 20.3157 26.4923 20.3157C26.4923 20.3157 26.1527 20.7734 25.9365 22.619C25.9365 22.619 25.5998 20.3813 25.6895 19.607C25.7792 18.8328 26.4027 17.0003 27.1099 16.1227C27.8172 15.2451 30.7568 16.9855 31.9275 18.485C30.2569 17.7402 28.2246 17.3398 27.7893 17.7172C27.354 18.0946 26.6962 19.3478 26.7394 19.4889C26.7827 19.6301 27.4526 18.772 27.9746 18.7212C28.4966 18.6704 31.0007 19.7252 31.0007 19.7252C31.0007 19.7252 29.0272 19.7907 28.901 19.9023C28.7747 20.0139 30.9418 20.1451 31.433 20.4929ZM22.4158 20.3157C22.4158 20.3157 21.3844 20.6193 21.1806 20.552C20.9768 20.4846 19.4391 20.3092 17.4752 20.4929C17.9663 20.1451 20.1336 20.0139 20.0072 19.9023C19.8808 19.7907 17.9075 19.7252 17.9075 19.7252C17.9075 19.7252 20.4116 18.6704 20.9336 18.7212C21.4556 18.772 22.1255 19.6301 22.1687 19.4889C22.212 19.3478 21.5541 18.0946 21.1189 17.7172C20.6837 17.3398 18.6515 17.7402 16.9811 18.485C18.1516 16.9855 21.0909 15.2451 21.7982 16.1227C22.5055 17.0003 23.1289 18.8328 23.2186 19.607C23.3084 20.3813 22.9716 22.619 22.9716 22.619C22.7554 20.7734 22.4158 20.3157 22.4158 20.3157Z" fill="#0F0F0F"/>
<defs>
<filter id="filter0_d_487_66557" x="54.2774" y="9.34133" width="154.285" height="32.7104" filterUnits="userSpaceOnUse" color-interpolation-filters="sRGB">
<feFlood flood-opacity="0" result="BackgroundImageFix"/>
<feColorMatrix in="SourceAlpha" type="matrix" values="0 0 0 0 0 0 0 0 0 0 0 0 0 0 0 0 0 0 127 0" result="hardAlpha"/>
<feOffset dy="0.600567"/>
<feGaussianBlur stdDeviation="0.600567"/>
<feComposite in2="hardAlpha" operator="out"/>
<feColorMatrix type="matrix" values="0 0 0 0 0.6 0 0 0 0 0.1 0 0 0 0 0.115707 0 0 0 0.3 0"/>
<feBlend mode="normal" in2="BackgroundImageFix" result="effect1_dropShadow_487_66557"/>
<feBlend mode="normal" in="SourceGraphic" in2="effect1_dropShadow_487_66557" result="shape"/>
</filter>
<linearGradient id="paint0_linear_487_66557" x1="129.073" y1="15.4129" x2="127.336" y2="40.1986" gradientUnits="userSpaceOnUse">
<stop stop-color="#FF2F35"/>
<stop offset="1" stop-color="#D71A20"/>
</linearGradient>
</defs>
</svg>
