<svg width="51" height="50" viewBox="0 0 51 50" fill="none" xmlns="http://www.w3.org/2000/svg">
<path d="M25.5 32.8125C29.8147 32.8125 33.3125 29.3147 33.3125 25C33.3125 20.6853 29.8147 17.1875 25.5 17.1875C21.1853 17.1875 17.6875 20.6853 17.6875 25C17.6875 29.3147 21.1853 32.8125 25.5 32.8125Z" stroke="#FF2F35" stroke-width="3" stroke-linecap="round" stroke-linejoin="round"/>
<path d="M35.8711 40.6245C32.3908 42.9352 28.2386 44.0175 24.0732 43.6995C19.9078 43.3816 15.9678 41.6818 12.8785 38.8697C9.78922 36.0576 7.72749 32.2944 7.0205 28.1772C6.3135 24.0599 7.00172 19.8245 8.97596 16.1429C10.9502 12.4613 14.0974 9.54449 17.9181 7.85524C21.7389 6.16598 26.0143 5.80106 30.0661 6.81838C34.1178 7.83569 37.7138 10.177 40.2834 13.4707C42.853 16.7645 44.249 20.822 44.25 24.9995C44.25 29.3159 42.6875 32.812 38.7813 32.812C34.875 32.812 33.3125 29.3159 33.3125 24.9995V17.187" stroke="#FF2F35" stroke-width="3" stroke-linecap="round" stroke-linejoin="round"/>
</svg>
