<svg width="50" height="50" viewBox="0 0 50 50" fill="none" xmlns="http://www.w3.org/2000/svg">
<path d="M18.0664 24.3749C19.6743 27.6952 22.3591 30.3732 25.6836 31.9725C25.9288 32.0886 26.2001 32.1389 26.4706 32.1184C26.7412 32.0978 27.0017 32.0072 27.2266 31.8553L32.1094 28.5936C32.3251 28.4473 32.5744 28.358 32.834 28.3341C33.0935 28.3102 33.3549 28.3525 33.5938 28.4569L42.7344 32.3827C43.0468 32.5127 43.3078 32.7418 43.4772 33.0348C43.6466 33.3277 43.715 33.6682 43.6719 34.0038C43.3822 36.265 42.2785 38.3432 40.5673 39.8494C38.8561 41.3557 36.6547 42.1869 34.375 42.1874C27.3302 42.1874 20.5739 39.3888 15.5925 34.4074C10.611 29.426 7.8125 22.6697 7.8125 15.6249C7.81301 13.3452 8.64417 11.1438 10.1504 9.43261C11.6567 7.72142 13.7349 6.61772 15.9961 6.32801C16.3317 6.28489 16.6722 6.35331 16.9651 6.52271C17.2581 6.69211 17.4872 6.9531 17.6172 7.26551L21.543 16.4257C21.6451 16.6607 21.6878 16.9173 21.6673 17.1727C21.6469 17.4282 21.5639 17.6747 21.4258 17.8905L18.1641 22.8514C18.0189 23.0758 17.9336 23.3337 17.9165 23.6004C17.8994 23.8671 17.951 24.1338 18.0664 24.3749V24.3749Z" stroke="#FF2F35" stroke-width="3" stroke-linecap="round" stroke-linejoin="round"/>
</svg>
